<svg xmlns="http://www.w3.org/2000/svg" viewBox="0 0 80.47 97.34">
  <defs>
    <style>
      .cls-1 {
        fill: #51545d;
      }
    </style>
  </defs>
  <title>Asset 12</title>
  <g id="Layer_2" data-name="Layer 2">
    <g id="PRINT">
      <g>
        <polygon class="cls-1" points="41 18.35 41 0 39.47 0 39.47 18.35 33.35 18.35 33.35 19.89 47.11 19.89 47.11 18.35 41 18.35"/>
        <g>
          <path class="cls-1" d="M18,31.56v1.78h2.64v1.48H18v2.39h3.62v1.48H16.29v-8.6h5.16v1.47Z"/>
          <path class="cls-1" d="M25.76,30.09h1.16l4.8,5.6v-5.6h1.65v8.6H32.21l-4.8-5.6v5.6H25.76Z"/>
          <path class="cls-1" d="M42.29,36A3.16,3.16,0,0,1,42,37.51a2.62,2.62,0,0,1-2.35,1.3,2.55,2.55,0,0,1-2.42-1.51l1.43-.71a1.08,1.08,0,0,0,1,.75,1,1,0,0,0,.75-.35,1.27,1.27,0,0,0,.19-.82V30.09h1.66Z"/>
          <path class="cls-1" d="M50.77,30a4.43,4.43,0,1,1-4.48,4.43A4.35,4.35,0,0,1,50.77,30Zm0,7.38a3,3,0,1,0-2.82-3A2.86,2.86,0,0,0,50.77,37.34Z"/>
          <path class="cls-1" d="M62.51,34.79v3.9H60.85v-3.9l-2.94-4.7H59.8l1.89,3,1.88-3h1.89Z"/>
          <path class="cls-1" d="M4.49,44.31a4.42,4.42,0,1,1,0,8.84,4.42,4.42,0,1,1,0-8.84Zm0,7.37a3,3,0,0,0,0-5.9,3,3,0,0,0,0,5.9Z"/>
          <path class="cls-1" d="M14.14,52.27A3.61,3.61,0,0,1,13,49.41v-5h1.66v5.1a2,2,0,0,0,.57,1.6,2.21,2.21,0,0,0,2.92,0,2,2,0,0,0,.57-1.6v-5.1H20.4v5a3.61,3.61,0,0,1-1.1,2.86,3.88,3.88,0,0,1-2.58.88A3.88,3.88,0,0,1,14.14,52.27Z"/>
          <path class="cls-1" d="M26.68,49.22V53H25v-8.6h3.13a2.61,2.61,0,0,1,1.88.64,2.41,2.41,0,0,1,0,3.51,2.06,2.06,0,0,1-.86.51L32.39,53H30.34l-3.06-3.81Zm1.38-1.47a1,1,0,0,0,.83-.26,1,1,0,0,0,.25-.65,1,1,0,0,0-.25-.66,1,1,0,0,0-.83-.28H26.68v1.85Z"/>
          <path class="cls-1" d="M40.88,44.43h1.67l1.78,5.37,1.89-5.37h1.17l1.89,5.37,1.79-5.37h1.67L49.88,53H48.72L46.8,47.59,44.9,53H43.73Z"/>
          <path class="cls-1" d="M56.55,44.43h1.66V53H56.55Z"/>
          <path class="cls-1" d="M62.89,44.43h1.16l4.8,5.6v-5.6H70.5V53H69.34l-4.8-5.6V53H62.89Z"/>
          <path class="cls-1" d="M76.84,45.9v1.79h2.64v1.47H76.84v2.4h3.63V53H75.18v-8.6h5.16V45.9Z"/>
          <path class="cls-1" d="M8.88,63.08a2.9,2.9,0,0,0,2.94,3,3,3,0,0,0,2.43-1.2l1.15,1a4.54,4.54,0,0,1-3.62,1.65,4.43,4.43,0,1,1,0-8.85,4.44,4.44,0,0,1,3.14,1.23L13.84,61a3,3,0,0,0-2.09-.88A2.87,2.87,0,0,0,8.88,63.08Z"/>
          <path class="cls-1" d="M25.29,63.51H21v3.87H19.33v-8.6H21V62h4.3V58.78H27v8.6H25.29Z"/>
          <path class="cls-1" d="M31.63,58.78h1.66v8.6H31.63Z"/>
          <path class="cls-1" d="M38,58.78h1.66V65.9h3.63v1.48H38Z"/>
          <path class="cls-1" d="M47.24,58.78H48.9V65.9h3.63v1.48H47.24Z"/>
          <path class="cls-1" d="M58.18,60.25V62h2.64v1.48H58.18V65.9h3.63v1.48H56.52v-8.6h5.17v1.47Z"/>
          <path class="cls-1" d="M68.69,58.78a4.69,4.69,0,0,1,3,.81,4.42,4.42,0,0,1,0,7,4.75,4.75,0,0,1-3,.81H66v-8.6Zm2.39,2.43a2.64,2.64,0,0,0-2.2-1H67.65V65.9h1.23a2.64,2.64,0,0,0,2.2-1,3.12,3.12,0,0,0,0-3.73Z"/>
        </g>
        <polygon class="cls-1" points="33.35 78.99 39.47 78.99 39.47 97.34 41 97.34 41 78.99 47.11 78.99 47.11 77.45 33.35 77.45 33.35 78.99"/>
      </g>
    </g>
  </g>
</svg>
