<svg xmlns="http://www.w3.org/2000/svg" viewBox="0 0 502 355.66">
  <defs>
    <style>
      .cls-1 {
        fill: #fff;
      }
    </style>
  </defs>
  <title>Asset 2</title>
  <g id="Layer_2" data-name="Layer 2">
    <g id="PRINT">
      <g>
        <g>
          <path class="cls-1" d="M186.83,229.33l-37.9,126.33H121.35L93.41,269.37,65.48,355.66H37.9L0,229.33H27.94l23.84,93.24,27.58-93.24h28.11l27.58,93.24,23.85-93.24Z"/>
          <path class="cls-1" d="M219.08,355.66V229.33h25.63V355.66Z"/>
          <path class="cls-1" d="M378.78,229.33V355.66H353.16l-48-81.49v81.49H279.49V229.33h25.63l48,81.5v-81.5Z"/>
          <path class="cls-1" d="M502,332.89v22.77H413.57V229.33h87.54v22.78H439.19v26.33h50v22.78h-50v31.67Z"/>
        </g>
        <g>
          <g>
            <path class="cls-1" d="M165.05,48.7h-4.61c-16.21,0-24.49,9.21-26.52,26.71h-3.5V41.88h107.2V75.41h-3.5c-2-17.5-10.32-26.71-26.52-26.71H203c-4.24,0-6.63,2-6.63,7v94.86c0,10.86,5,16.2,14.37,16.2h1.84v4.06h-57.1v-4.06h1.84c9.4,0,14.37-5.34,14.37-16.2V55.7C171.68,50.72,169.28,48.7,165.05,48.7Z"/>
            <path class="cls-1" d="M348.93,80.38h4.42v51h-4.42c0-13.08-7.74-22.1-19.53-22.1H309.32v41.81C309.32,162,313,164,320.38,164h11.78c18.42,0,30.58-7.74,35-28.18h4.42l-2.58,35H268.43v-4.06h1.85c9.39,0,14.36-5.34,14.36-16.2V62.14c0-10.86-5-16.2-14.36-16.2h-1.85V41.88h98.91V75h-4.42c-1.47-16.76-8.47-26.34-27.63-26.34H320.38c-7.37,0-11.06,2-11.06,12.89v40.89H329.4C341.19,102.48,348.93,93.46,348.93,80.38Z"/>
          </g>
          <path class="cls-1" d="M321.65,8.3c-8.44,8.44-8.3,22.27-8.3,22.27s13.83.14,22.27-8.3S343.92,0,343.92,0,330.1-.14,321.65,8.3Z"/>
        </g>
      </g>
    </g>
  </g>
</svg>
