<svg xmlns="http://www.w3.org/2000/svg" viewBox="0 0 290.32 388.45">
  <title>Asset 1</title>
  <g id="Layer_2" data-name="Layer 2">
    <g id="PRINT">
      <g>
        <path d="M52.74,388.27H48.17v-13.8h4.57a6.9,6.9,0,0,1,0,13.8Zm0-2c2.74,0,4.41-2,4.41-4.88s-1.67-4.88-4.41-4.88H50.41v9.76Zm25-1.42H72l-1.32,3.44H68.36l5.39-13.8H76l5.38,13.8H79.07Zm-.78-2-2.1-5.36-2.12,5.36Zm21.47-8.32a4.28,4.28,0,0,1,4.41,4.28,4.22,4.22,0,0,1-3.22,4.1l3.81,5.42h-2.61L97.16,383h-3v5.25H92v-13.8Zm-4.27,2V381h4.14c1.51,0,2.31-.64,2.31-2.25a2,2,0,0,0-2.31-2.26Zm27.18,7.86c0,2.27-1.26,4.1-4.22,4.1a3.9,3.9,0,0,1-4.1-4.1h2a1.93,1.93,0,0,0,2.08,2.07c1.58,0,2-.85,2-2.42v-9.53h2.24Zm21.3-9.88v2h-7.31v3.62h6v2h-6v4.12h7.38v2h-9.62v-13.8Zm20.48,0v2h-7.31v3.62h6v2h-6v4.12h7.38v2H153.6v-13.8Zm20.07,11.78v2h-9.14v-13.8h2.24v11.78Zm10.8,2v-13.8h2.23v13.8Zm22.29,0-6-10v10H208.1v-13.8h2.32l6,10v-10h2.24v13.8Zm25.84-7.5v7.5H240.3l-.39-1a5.24,5.24,0,0,1-3.36,1.17c-4.06,0-6.74-3.11-6.74-7.08s2.68-7.07,6.74-7.07a5.56,5.56,0,0,1,5.4,3.16L240,378.55a3.55,3.55,0,0,0-3.46-2.21c-2.8,0-4.43,2.25-4.43,5s1.63,5,4.43,5c2.08,0,3.34-1.27,3.34-3.6h-3.22v-2Z"/>
        <path d="M122.35,349.86a48.75,48.75,0,0,1,5.6,5l-.57.87h-.09c-3.8-3.56-5.16-4.86-7.66-4.86a11.72,11.72,0,0,0-1.76.11l0-.05L117,348.7c.5-.05,1-.07,1.52-.07A6.74,6.74,0,0,1,122.35,349.86Zm76.3-19.38-.88-1.77H177.33a3.17,3.17,0,0,1-.56-2s0-.08,0-.12l1.53-1.53-.72-.72a5.48,5.48,0,0,1,4.46-1.82c3.58,0,6.8,2.12,9.8,5.46H192l.66-.91c-3.77-4.3-7.68-6.63-11.86-6.63-3.52,0-5.56,1.93-6,4.14l-.48.48.39.39s0,0,0,.07a5,5,0,0,0,1.17,3.18H150.22a3.17,3.17,0,0,1-.56-2c0-2.27,1.92-4.19,5.28-4.19,3.58,0,6.8,2.12,9.8,5.46h.14l.66-.91c-3.76-4.3-7.68-6.63-11.86-6.63-4,0-6.11,2.5-6.11,5.08a5,5,0,0,0,1.17,3.18H87.61l-.14.2.88,1.77H99.19v3c0,.33-.19.51-.55.51H96.1c-3.61,0-6.2,1.63-6.2,4.85,0,3.38,3,6.74,7.44,6.74a7.22,7.22,0,0,0,3.33-.73,3.63,3.63,0,0,1,1.27,2.49c0,1.13-.82,2-2.08,2.88l2.18,1.74h.14a4.15,4.15,0,0,0,2.16-3.44c0-1.13-.73-2.55-2.63-4.29a3,3,0,0,0,1.55-2.51,2.78,2.78,0,0,0-.84-2,2.49,2.49,0,0,0-1.83-.79,2.19,2.19,0,0,0-2.21,2.12,2.44,2.44,0,0,0,.71,1.8,6.29,6.29,0,0,1-2.81.71c-2.51,0-4.13-1.63-4.13-3.75,0-2.39,2-3.73,6.23-3.73h2.69l.18-.18,0-5.43h6l-.05,16.4,2.05.54.18-.2-.07-16.74h9.1a10.38,10.38,0,0,1,.2,2.23,5.72,5.72,0,0,1-.62,2.78c-.71-.07-1.51-.11-2.32-.11a2,2,0,0,0-1.73.6,1.5,1.5,0,0,0-.33,1,6.42,6.42,0,0,0,1.35,3.06,35.07,35.07,0,0,0,7.49,7.4h.22l1.26-2.34a25.64,25.64,0,0,1-7.12-5.23,6.58,6.58,0,0,0,4-6.29,15.59,15.59,0,0,0-.27-3.07h20.66v3.62h-9.28l-.15.22.84,1.94c3,.36,3.73,1.75,3.73,2.67a3.19,3.19,0,0,1-3.25,3.1c-2.44,0-4.72-2.35-6.8-7.44l-1.19.64v.15c2.54,6.32,5.55,9.12,9,9.12a4,4,0,0,0,4.08-4,8,8,0,0,0-1.56-4.26h4.61l-.07,10.62,2,.54.19-.2-.08-16.74h5.19l-.05,16.4,2,.54.19-.2-.08-16.74h17.74v3.05a10.1,10.1,0,0,0-5,1.76,6.33,6.33,0,0,0-4.26-1.83,4.37,4.37,0,0,0-4.41,4.66c0,3.55,2.45,6.58,6.25,9.29h.15l1.46-2.16c-3.54-1.55-5.76-3.16-5.76-6.12a3.45,3.45,0,0,1,3.44-3.42,3.85,3.85,0,0,1,2.18.55,6.94,6.94,0,0,0-1.5,3.23l1.88,1.21h.13c1-3.42,2.21-4.31,5.39-4.94l-.07,11.12,2,.54.19-.2-.08-16.74h5.19l0,16.4,2,.54.19-.2-.08-16.74h7.05c.09.88.12,2,.12,3.07a33.08,33.08,0,0,1-.14,3.38,4.92,4.92,0,0,0-2.62.63,1.42,1.42,0,0,0-.38,1,3.38,3.38,0,0,0,1,2.12c.9,1.06,1.63,1.55,2.11,1.55.67,0,1.17-.38,1.48-1.33a20.47,20.47,0,0,0,.62-5.83c0-1.67-.06-3.22-.2-4.63h6.41l-.07,16.4,2.07.54.18-.2-.07-16.74h3.3Z"/>
        <path d="M197,260.28c.21,3.65.57,7.2,1.06,10.66l-48.16-.53c.74-.72,1.47-1.44,2.18-2.18a135.87,135.87,0,0,0,10.69-12.57,102.16,102.16,0,0,0,30.6,4.7C194.63,260.36,195.84,260.33,197,260.28ZM77.51,144.9s-7.07,5.25-13.6,3.69l-.48.45c-1.77,3.16-3.09,7.24-1.91,11.09a22,22,0,0,1,.59-5c1.86-4.33,4.57-2.77,4.57-2.77l-.29,1.56c-.85,1.93,1.57,8.9,1.57,8.9a93.65,93.65,0,0,1,3.14,9.86c.72,8.65-4.56,16-4.56,16,.4,1,.85,2.05,1.33,3.08l0,0,.21.33c.28.59.58,1.19.89,1.78l-17,7.72a13,13,0,0,0-5.51-6.81C40.28,191.06,37,177.24,37,177.24a33.28,33.28,0,0,0-3.57-11.54c5.27-.73,7.91,8.84,8.55,11.55.12-1.62,3.15-3.26,3.15-3.26-2.42-3.73,2-5.05,2-5.05-2-2.52,2.14-7,2.14-7,3.85-4,4.28-7,4.28-7,2-3.13,1.57-8.06,1.57-8.06a3.54,3.54,0,0,1,3.28,1.93,9.59,9.59,0,0,1,1,4.74,15.19,15.19,0,0,1,2.91-6c-2.8-3-9.06-11.34-3.17-22.16a20.7,20.7,0,0,1,6.18,15.35,26.2,26.2,0,0,1,10.55-10.18c-1.33,5.66-5.62,11.23-9,14.91A14.41,14.41,0,0,1,77.51,144.9ZM59.18,162.17a20,20,0,0,1-.35-4.55,26,26,0,0,1-2,5.31c-1.42,8.17,2.86,8.54,2.86,8.54,2.57,0,2.57-5.53,2.57-5.53a20.55,20.55,0,0,1-.71-4.69Zm77.43,18.21a87.07,87.07,0,0,1-11.12,1.37,6.66,6.66,0,0,1-.37,1.24c-7.26,21.16-3.89,35,.73,43.26l1.68-4.4c.79-2.07,1.63-4.55,2.51-7.17,2.94-8.76,6.6-19.66,12.83-27.7,7.4-9.56,17-13,28.66-10.12a23,23,0,0,1,8.65,4,77.13,77.13,0,0,1-7.68-15.35A94.38,94.38,0,0,1,136.61,180.38Zm8.12,8.05c-6,7.72-9.57,18.41-12.46,27-.89,2.65-1.73,5.15-2.54,7.27-1.47,3.83-2.93,7.7-4.35,11.56l39.19,14.82c.66-1,1.3-2,1.91-2.94a159.32,159.32,0,0,0,17.57-40.57c1.94-6.9,1.47-13.57-1.29-18.3-2.36-4.05-6.33-6.78-11.79-8.12C160.19,176.51,151.61,179.54,144.73,188.43ZM164,250l-39-14.73c-1,2.61-1.92,5.21-2.86,7.79l36.17,14.57C160.32,255.09,162.22,252.54,164,250Zm-39.84-67.32.28-.85q-1.56.06-2.64.06h-.69c-3,4.45-6.64,9.7-10.45,14.62,0,0-15.71,17.9-14.59,28.85a292.83,292.83,0,0,0,21.69,22.93l1.35-3.7c2-5.59,4.15-11.33,6.29-17C120.42,219.16,116.53,204.83,124.13,182.65ZM52.34,202.56c.81,1.82,3,6.61,6.33,13l18.42-9a95.76,95.76,0,0,1-7.67-11.79ZM186.81,191c1.58,5.88.48,11.81-.49,15.26a161.68,161.68,0,0,1-17.84,41.18c-1.54,2.46-3.23,4.93-5,7.38A101.39,101.39,0,0,0,197,259.24a196.66,196.66,0,0,1,.63-25.77c.46-6.45.87-12,.35-16.78C197,207.93,192.35,199.57,186.81,191Zm4.37-48.13a28.65,28.65,0,0,1,.86-7.07,27,27,0,0,1,1.73-5.9c-3.18-2.36-9.08-6.64-16.85-12Zm-4.53-78.24,2.65.56L193,52.77c2.07-6.92-1.18-13.57-7.25-14.86l-24.57-5.23c-6.08-1.29-12.68,3.27-14.75,10.18l-3.73,12.45,4.1.86ZM190,67.3,142.31,57.22l32.52,57c9.09,6.2,16,11.24,19.74,14a25.79,25.79,0,0,1,3.11-4.73S220.78,90.15,190,67.3ZM235.76,134c3.14-3.32,7.54-8.75,8.84-14.26a23.88,23.88,0,0,0-10.06,10.05,18.86,18.86,0,0,0-5.65-14.2c-6,10.93,1.72,19.12,3.61,20.9,0,.25-.07.51-.1.77l.48-.42h0v0l.18-.16c6,1.54,12.6-3.33,12.6-3.33A13.2,13.2,0,0,0,235.76,134Zm-32.95,26.11c3,0,4.53-1.81,6.13-3.73,1.41-1.7,2.87-3.44,5.38-3.95l-17.65,0,4.24,7.43A6.17,6.17,0,0,0,202.81,160.15Zm20-3.73c1.6,1.92,3.11,3.73,6.13,3.73s4.53-1.81,6.13-3.73c1.38-1.65,2.79-3.35,5.18-3.92l-22.8,0C220,153,221.41,154.73,222.82,156.42Zm37.95-33c3.13-3.33,7.41-8.68,8.69-14.1a23.82,23.82,0,0,0-10.08,10.1,18.79,18.79,0,0,0-5.62-14.65c-6,11,1.83,19.24,3.64,20.93,0,.37-.09.75-.13,1.14,0,0,.32-.28.86-.78,6,1.54,12.59-3.33,12.59-3.33A13.24,13.24,0,0,0,260.77,123.42Zm-11.81,33c1.6,1.92,3.11,3.73,6.13,3.73s4.53-1.81,6.13-3.73c1.35-1.62,2.74-3.28,5-3.88l-22.45,0C246.18,153.08,247.59,154.77,249,156.42ZM209.7,243.09c-1.69,2-3.43,4.11-6.94,4.11a6.85,6.85,0,0,1-3.54-.91c-.09,3-.12,6.2,0,9.56a5.86,5.86,0,0,0,3.56,1.12c3,0,4.53-1.81,6.13-3.73s3.43-4.11,6.94-4.11,5.25,2.09,6.94,4.11c1.39,1.67,2.71,3.25,5,3.64l-8.26-16.31a5.89,5.89,0,0,0-3.69-1.21C212.81,239.36,211.3,241.17,209.7,243.09ZM109,70l36.74,25-18-35.5A57.16,57.16,0,0,0,109,70Zm76,113.92c2.61,3.94,5.16,7.79,7.41,11.65a11.1,11.1,0,0,1,4.22,3.6,11,11,0,0,0,3.48,3.15L170.3,143.48a75.23,75.23,0,0,0,11.93,36.19Zm15,30.32c.12.74.23,1.48.31,2.23a56.14,56.14,0,0,1,.22,7.67,6.13,6.13,0,0,0,2.24.4c3,0,4.53-1.81,6.13-3.73l.37-.44L206,214a7,7,0,0,1-3.28.76A7,7,0,0,1,200,214.21Zm-4.17-14.4a16.26,16.26,0,0,0-2.36-2.46,55.66,55.66,0,0,1,6.27,15.56,5.92,5.92,0,0,0,3,.78,6,6,0,0,0,2.8-.65l-4.75-9.37C198.54,203.06,197.16,201.41,195.82,199.81Zm13.88,32.46c-1.69,2-3.43,4.11-6.94,4.11a7,7,0,0,1-3-.61c-.2,2.94-.41,6-.53,9.31a5.84,5.84,0,0,0,3.49,1.07c3,0,4.53-1.81,6.13-3.73s3.43-4.11,6.94-4.11a7.07,7.07,0,0,1,2.81.54l-5-9.92A10,10,0,0,0,209.7,232.27Zm-6.94-6.71a7.54,7.54,0,0,1-2.28-.34c-.1,2.63-.31,5.43-.52,8.42,0,.33-.05.67-.07,1a5.85,5.85,0,0,0,2.87.69c3,0,4.53-1.81,6.13-3.73a11.08,11.08,0,0,1,4.25-3.62l-3.36-6.63-.08.1C208,223.47,206.27,225.56,202.76,225.56ZM103.63,75.08a34.45,34.45,0,0,0,3,5.25c4.9,7.23,14.28,10.42,23.36,13.5,3.56,1.21,7.24,2.46,10.57,3.93a43.91,43.91,0,0,1,9.23,5.25l-2.35-4.65c-16.94-11.55-33.26-22.64-39.89-27.14C106.21,72.42,104.9,73.7,103.63,75.08Zm18.14,105.73a81.69,81.69,0,0,0,14.68-1.46,93.61,93.61,0,0,0,35.68-14.88c-.83-2.38-1.51-4.66-2-6.81-21.09,13.14-38.87,15.57-43.69,16C125.29,175.41,123.7,177.91,121.77,180.81ZM149.7,106a19.48,19.48,0,0,1,3.88,4.49l.49,1c.06.14.12.28.17.42l5.06,9.89a15.76,15.76,0,0,0-3.94-.5c-8.21,0-14.88,6.24-14.88,13.92s6.67,13.93,14.88,13.93a15.12,15.12,0,0,0,12.53-6.42,69.22,69.22,0,0,0,1.62,12.53c-18.65,11.77-35,15-41.53,15.85L128,171c3.26-5.75,6.74-13.31,3.5-19.58-3.86-7.45-11.6-2.24-18.5-2.64-7.85-.45-4.32-9.49-8.4-13.36a9.81,9.81,0,0,0-3.57-1.68c-1.28-1.2,1.57-3.37,1.57-3.37a3.76,3.76,0,0,1-2.57-1.8,9.71,9.71,0,0,0,.57-4.45c.29-1.08-2.85-1.2-2.85-1.2l-3-.24c-5.42-.63-1-4.85-1-4.85,3.49-5.72,5.71-15.55,5.71-15.55a50.43,50.43,0,0,1,5.75-19.79c5.45,7.31,14.86,10.5,24,13.59,3.68,1.25,7.14,2.43,10.37,3.86A37.38,37.38,0,0,1,149.7,106Zm-46.44-6.19c.58,0,1-.71,1-1.59s-.46-1.59-1-1.59-1.05.71-1.05,1.59S102.68,99.81,103.26,99.81Zm19.24,5-.19-.17a15.27,15.27,0,0,1-5.18,2.48,22.76,22.76,0,0,1-14.41-1l-.12.23c.08,0,5,3.35,10.44,3.35A11.23,11.23,0,0,0,122.5,104.86Zm32.86,18.64a13.49,13.49,0,0,1,4.64.82l7.22,14.94a12.62,12.62,0,0,1-11.86,7.65c-7,0-12.65-5.25-12.65-11.71S148.38,123.5,155.36,123.5Zm-.38,4.82a6.64,6.64,0,1,0,7,6.63A6.82,6.82,0,0,0,155,128.32ZM149,135a6,6,0,1,0,6-5.65A5.84,5.84,0,0,0,149,135Zm141.34,10.21c0,2-.07,3.91-.14,5.85,0,.52,0,1.05,0,1.57s-.07.76-.09,1.15-.08,1-.11,1.46q-.35,4.92-1,9.75c-.08.59-.14,1.19-.23,1.78-.59,4-1.39,7.94-2.31,11.83-.14.62-.27,1.25-.43,1.87-1,3.87-2.11,7.67-3.39,11.41-.12.37-.24.74-.37,1.11-1.1,3.15-2.29,6.27-3.6,9.32-.14.32-.29.63-.43,1q-1.5,3.4-3.16,6.71l-.51,1c-1.11,2.16-2.27,4.3-3.48,6.4-.17.3-.34.6-.52.9q-3.36,5.76-7.23,11.16c-1.42,2-2.9,4-4.42,5.86q-3.8,4.8-8,9.24c-.24.27-.49.53-.74.79l-.29.3c-.44.46-.87.93-1.32,1.38-3.14,3.19-6.44,6.24-9.86,9.13l-.82.7q-2.81,2.34-5.74,4.55c-.49.37-1,.72-1.51,1.08q-2.76,2-5.63,3.92l-.91.58c-2.18,1.42-4.41,2.78-6.67,4.09l-1.44.82q-2.76,1.56-5.6,3c-.83.42-1.65.86-2.48,1.26-1.83.88-3.68,1.71-5.54,2.51-.86.37-1.74.72-2.61,1.07a144.64,144.64,0,0,1-82.92,7.87C50.28,274.29,0,215.5,0,145.16,0,65.12,65.12,0,145.16,0,218.6,0,279.43,54.83,289,125.69l.1,0c0,.06-.06.13-.08.2.51,3.78.9,7.59,1.1,11.45a2.45,2.45,0,0,1,0,.27c.09,1.63.11,3.28.14,4.92C290.27,143.39,290.32,144.27,290.32,145.16Zm-4.81-12.56a43.92,43.92,0,0,1-4.65,5.33,13,13,0,0,1,5-1.07Q285.71,134.72,285.51,132.6Zm.52,9.89c0-1,0-2-.07-3a14.08,14.08,0,0,1-7.71.79c-.65.56-1.05.87-1.05.87,0-.42.1-.83.17-1.23-2.15-1.91-8.88-9-3.28-18.35A16.19,16.19,0,0,1,279.6,134a20.86,20.86,0,0,1,5.43-5.89C276.59,58.42,217.1,4.22,145.16,4.22,67.45,4.22,4.22,67.45,4.22,145.16,4.22,213.7,53.41,271,118.33,283.51c-.51-.2-1-.35-1.55-.6A96.59,96.59,0,0,1,101.66,274c-18.57-15.22-34-41.18-42.51-57.48l18.58-9.07a171.72,171.72,0,0,0,11.73,13.68,304,304,0,0,0,28,30.06l1.3,1.2.61-1.66,2-5.37,0-.12,35.41,14.27c-2,2.43-4.14,4.8-6.34,7.08A161.48,161.48,0,0,1,136.54,279c-4.07,3.35-7.39,5.38-11.12,5.74,1.94.28,3.88.53,5.85.72a37.82,37.82,0,0,0,6.77-4.64c3-2.47,6.26-5.16,9.41-8l51,.56c.12.74.3,1.42.43,2.15l2.27-1c-.36-2-.76-4-1-6.12a7.1,7.1,0,0,0,2.64.48c3.51,0,5.25-2.09,6.94-4.11s3.11-3.73,6.13-3.73c2.51,0,4,1.26,5.31,2.78l.89-.57c-1.49-1.71-3.19-3.26-6.2-3.26-3.51,0-5.25,2.09-6.94,4.11s-3.11,3.73-6.13,3.73a5.94,5.94,0,0,1-2.78-.64c-.25-2.3-.46-4.64-.6-7-.06-1-.1-2-.14-3a6.87,6.87,0,0,0,3.52.9c3.51,0,5.25-2.09,6.94-4.11s3.11-3.73,6.13-3.73,4.53,1.81,6.13,3.73,3.24,3.88,6.39,4.09l.31.62c.51-.37,1-.75,1.5-1.12L148.88,97.13l0,0-19.37-38.2q1.92-.57,3.81-1L235.83,253l.81-.71L134.35,57.65c1.85-.39,3.69-.71,5.52-.94h0l33.48,58.64,0,0,.09.07,72.89,127.67c.55-.57,1.09-1.14,1.63-1.72a14,14,0,0,0-1.29-1.38l-6.44-11.27a6.19,6.19,0,0,1,1.73-.23c3,0,4.53,1.81,6.13,3.73,1.28,1.53,2.59,3.09,4.68,3.76.26-.31.54-.61.8-.93-2.06-.49-3.36-1.93-4.67-3.5-1.69-2-3.43-4.11-6.94-4.11a7.11,7.11,0,0,0-2.26.34L236,221.29c1.55-1.86,3.06-3.57,6-3.57s4.53,1.81,6.13,3.73,3.43,4.11,6.94,4.11,5.26-2.09,6.94-4.11a10.72,10.72,0,0,1,3.63-3.16c.27-.45.52-.91.78-1.36-2.38.57-3.84,2.2-5.22,3.85-1.6,1.92-3.11,3.73-6.13,3.73s-4.53-1.81-6.13-3.73-3.43-4.11-6.94-4.11c-3.25,0-5,1.78-6.55,3.65l-3.54-6.2a11.68,11.68,0,0,0,4-3.49c1.6-1.92,3.11-3.74,6.13-3.74s4.53,1.82,6.13,3.74,3.43,4.11,6.94,4.11,5.26-2.09,6.94-4.11,3.11-3.74,6.13-3.74a5.77,5.77,0,0,1,3.23,1c.16-.32.33-.62.48-.94a6.78,6.78,0,0,0-3.71-1.06c-3.51,0-5.25,2.09-6.94,4.11s-3.11,3.73-6.13,3.73-4.53-1.81-6.13-3.73-3.43-4.11-6.94-4.11-5.25,2.09-6.94,4.11a10.49,10.49,0,0,1-3.67,3.24l-5.74-10a7,7,0,0,0,3.28.76c3.51,0,5.25-2.09,6.94-4.11s3.11-3.74,6.13-3.74,4.53,1.82,6.13,3.74,3.43,4.11,6.94,4.11,5.26-2.09,6.94-4.11,3.11-3.74,6.13-3.74,4.54,1.82,6.14,3.74c.17.21.36.42.55.63l.45-1.08-.2-.22c-1.68-2-3.42-4.11-6.94-4.11s-5.25,2.09-6.94,4.11-3.11,3.73-6.13,3.73-4.53-1.81-6.13-3.73S245.48,195,242,195s-5.25,2.09-6.94,4.11-3.11,3.73-6.13,3.73a6.15,6.15,0,0,1-4.57-2l-8.92-15.62.42,0c3,0,4.53,1.82,6.13,3.74s3.43,4.11,6.94,4.11,5.25-2.09,6.94-4.11,3.11-3.74,6.13-3.74,4.53,1.82,6.13,3.74,3.43,4.11,6.94,4.11S260.3,191,262,189s3.11-3.74,6.13-3.74,4.54,1.82,6.14,3.74a12.41,12.41,0,0,0,3.72,3.3c.12-.34.23-.67.34-1a11.57,11.57,0,0,1-3.26-3c-1.68-2-3.42-4.11-6.94-4.11s-5.25,2.09-6.94,4.11-3.11,3.73-6.13,3.73-4.53-1.81-6.13-3.73-3.43-4.11-6.94-4.11-5.25,2.09-6.94,4.11-3.11,3.73-6.13,3.73-4.53-1.81-6.13-3.73-3.43-4.11-6.94-4.11a7.86,7.86,0,0,0-1,.06L210.7,177a6.5,6.5,0,0,1,5.13-2.57c3,0,4.53,1.81,6.13,3.73s3.43,4.11,6.94,4.11,5.25-2.09,6.94-4.11,3.11-3.73,6.13-3.73,4.53,1.81,6.13,3.73,3.43,4.11,6.94,4.11,5.26-2.09,6.94-4.11,3.11-3.73,6.13-3.73,4.54,1.81,6.14,3.73,3.4,4.07,6.86,4.1c.1-.36.21-.71.3-1.07-.08,0-.14,0-.23,0-3,0-4.53-1.81-6.13-3.73s-3.42-4.11-6.94-4.11-5.25,2.09-6.94,4.11-3.11,3.73-6.13,3.73-4.53-1.81-6.13-3.73-3.43-4.11-6.94-4.11-5.25,2.09-6.94,4.11-3.11,3.73-6.13,3.73-4.53-1.81-6.13-3.73-3.43-4.11-6.94-4.11a7.34,7.34,0,0,0-5.68,2.66l-3.31-5.8a15.37,15.37,0,0,0,2.91-2.9c1.59-1.92,3.11-3.73,6.13-3.73s4.53,1.81,6.13,3.73,3.43,4.11,6.94,4.11,5.25-2.09,6.94-4.11,3.11-3.73,6.13-3.73,4.53,1.81,6.13,3.73,3.43,4.11,6.94,4.11,5.25-2.09,6.94-4.11,3.11-3.73,6.13-3.73,4.53,1.81,6.13,3.73,3.43,4.11,6.94,4.11a7.06,7.06,0,0,0,2.45-.42c.08-.43.15-.86.23-1.29a5.76,5.76,0,0,1-2.68.66c-3,0-4.53-1.81-6.13-3.73s-3.43-4.11-6.94-4.11-5.25,2.09-6.94,4.11-3.11,3.73-6.13,3.73-4.53-1.81-6.13-3.73-3.43-4.11-6.94-4.11-5.26,2.09-6.94,4.11-3.11,3.73-6.13,3.73-4.53-1.81-6.13-3.73-3.43-4.11-6.94-4.11-5.26,2.09-6.94,4.11a14.36,14.36,0,0,1-2.63,2.65l-4.69-8.22a7.47,7.47,0,0,0,1.19.09c3.51,0,5.25-2.09,6.94-4.11s3.11-3.74,6.13-3.74,4.53,1.82,6.13,3.74,3.43,4.11,6.94,4.11,5.25-2.09,6.94-4.11,3.11-3.74,6.13-3.74,4.53,1.82,6.13,3.74,3.43,4.11,6.94,4.11,5.25-2.09,6.94-4.11,3.11-3.74,6.13-3.74,4.53,1.82,6.13,3.74,3.43,4.11,6.94,4.11a6.78,6.78,0,0,0,4.09-1.27c.06-.49.09-1,.14-1.49a6,6,0,0,1-4.23,1.71c-3,0-4.53-1.81-6.13-3.73-1.34-1.61-2.73-3.27-5-3.87l15.82,0c0-.52,0-1,0-1.57l-90.18-.13-3.42-6a19,19,0,0,1-.12-2.38h16.7a15.76,15.76,0,0,1,.56-15.13,18.84,18.84,0,0,1,5.65,14,23.93,23.93,0,0,1,9.65-9.28c-.88,3.73-3.18,7.4-5.55,10.42h32.68a16.16,16.16,0,0,1-1.14-18.05,18.83,18.83,0,0,1,5.65,14,23.94,23.94,0,0,1,9.65-9.27c-1.18,5-5,10-8,13.34h.42a13.32,13.32,0,0,1,9.08-.32l-.49.32Z"/>
      </g>
    </g>
  </g>
</svg>
