<?xml version="1.0" encoding="UTF-8"?>
<svg width="348px" height="55px" viewBox="0 0 348 55" version="1.1" xmlns="http://www.w3.org/2000/svg" xmlns:xlink="http://www.w3.org/1999/xlink">
    <!-- Generator: Sketch 50.2 (55047) - http://www.bohemiancoding.com/sketch -->
    <title>te-tagline</title>
    <desc>Created with Sketch.</desc>
    <defs></defs>
    <g id="Page-1" stroke="none" stroke-width="1" fill="none" fill-rule="evenodd">
        <g id="te-tagline" transform="translate(0.000000, -1.000000)" fill="#000000" fill-rule="nonzero">
            <path d="M22.6691,29.721 L22.4621,29.826 C21.4051,30.359 20.8611,31.495 21.0771,33.155 L22.9161,47.427 L22.3971,47.69 L14.1241,40.19 L15.2291,51.32 L14.7731,51.552 L4.3491,42.278 C2.7311,40.83 1.4931,40.442 0.4391,40.978 L0.2301,41.083 L0.0001,40.627 L6.8791,37.144 L7.1081,37.6 L6.9021,37.705 C5.9271,38.199 5.8481,38.915 6.1541,39.516 C6.2591,39.723 6.4261,39.95 6.6241,40.137 L13.9171,46.673 L13.1941,39.335 L11.8061,38.085 C10.4811,36.855 9.6591,36.308 8.8711,36.708 L8.7271,36.782 L8.4941,36.325 L14.5861,33.24 L14.8151,33.696 L14.3191,33.949 C13.5321,34.348 13.4211,34.898 13.6931,35.436 C13.7981,35.643 13.9451,35.83 14.1441,36.017 L21.4171,42.616 L20.2701,33.617 C20.2041,33.18 20.1391,32.9 19.9831,32.591 C19.5841,31.804 18.8561,31.651 18.0281,32.07 L17.8211,32.175 L17.5891,31.719 L22.4371,29.265 L22.6691,29.721 Z" id="Fill-1"></path>
            <path d="M40.7062,39.162 L40.9242,39.077 L41.1112,39.553 L34.4132,42.188 L34.2262,41.712 L34.4412,41.627 C35.5432,41.193 35.8812,40.338 35.3792,39.062 L31.2992,28.693 C30.7982,27.418 29.9682,27.021 28.8662,27.454 L28.6502,27.539 L28.4632,27.066 L35.1612,24.432 L35.3482,24.905 L35.1302,24.99 C34.0312,25.423 33.6932,26.279 34.1952,27.554 L38.2752,37.924 C38.7762,39.199 39.6062,39.595 40.7062,39.162" id="Fill-3"></path>
            <path d="M49.1891,33.9374 C49.6061,35.2404 50.4041,35.6904 51.5321,35.3314 L51.7531,35.2634 L51.9061,35.7474 L47.2031,37.2464 L47.0471,36.7624 L47.2681,36.6914 C48.3961,36.3314 48.7871,35.5014 48.3731,34.1974 L44.9931,23.5924 C44.5791,22.2894 43.7771,21.8384 42.6491,22.1984 L42.4291,22.2694 L42.2751,21.7824 L45.6561,20.7054 L58.0741,27.9194 L55.6181,20.2074 C55.2041,18.9034 54.4021,18.4534 53.2771,18.8124 L53.0561,18.8834 L52.9001,18.3964 L57.6061,16.8974 L57.7601,17.3854 L57.5391,17.4564 C56.4141,17.8124 56.0201,18.6454 56.4371,19.9494 L60.6101,33.0474 L60.3241,33.1384 L46.3441,25.0124 L49.1891,33.9374 Z" id="Fill-5"></path>
            <path d="M75.5417,17.2206 L76.0827,17.0846 L77.6417,23.3266 L77.0997,23.4626 C76.7007,21.8616 75.4797,20.9946 74.0377,21.3546 L71.5807,21.9666 L72.8587,27.0836 C73.1897,28.4116 73.6997,28.5486 74.6037,28.3216 L76.0457,27.9616 C78.2987,27.4006 79.5477,26.0836 79.4657,23.4486 L80.0067,23.3126 L80.7607,27.6726 L68.4557,30.7416 L68.3337,30.2456 L68.5577,30.1886 C69.7077,29.9026 70.1527,29.0976 69.8207,27.7686 L67.1207,16.9516 C66.7897,15.6226 66.0187,15.1206 64.8687,15.4076 L64.6447,15.4646 L64.5207,14.9686 L76.6217,11.9486 L77.6327,16.0056 L77.0917,16.1406 C76.3997,14.1356 75.2527,13.1776 72.9097,13.7616 L71.0817,14.2176 C70.1807,14.4416 69.7927,14.8016 70.1247,16.1326 L71.3737,21.1336 L73.8307,20.5216 C75.2727,20.1616 75.9407,18.8216 75.5417,17.2206" id="Fill-7"></path>
            <path d="M113.6154,5.6327 L113.3864,5.6697 C112.2164,5.8567 111.7024,6.6187 111.9214,7.9727 L113.6834,18.9807 C113.9014,20.3317 114.6274,20.8987 115.7974,20.7117 L116.0264,20.6747 L116.1064,21.1787 L108.9974,22.3177 L108.9184,21.8137 L109.1474,21.7767 C110.3144,21.5897 110.8274,20.8247 110.6124,19.4727 L108.8214,8.3037 L105.5574,22.8707 L105.1924,22.9267 L97.7354,9.8677 L99.5594,21.2437 C99.7744,22.5957 100.5004,23.1617 101.6704,22.9747 L101.8994,22.9387 L101.9794,23.4427 L97.0944,24.2247 L97.0154,23.7197 L97.2444,23.6837 C98.4144,23.4967 98.9274,22.7317 98.7094,21.3797 L96.9474,10.3727 C96.7294,9.0187 96.0034,8.4547 94.8334,8.6417 L94.6044,8.6777 L94.5244,8.1737 L100.0044,7.2957 L105.7924,17.5867 L108.4224,5.9467 L113.5334,5.1287 L113.6154,5.6327 Z" id="Fill-9"></path>
            <path d="M131.9015,13.6507 L128.8505,8.0977 L127.1415,14.1237 L131.9015,13.6507 Z M122.3935,19.8957 L122.6255,19.8727 C123.8035,19.7567 124.9145,18.4787 125.4695,16.5547 L129.3745,3.0507 L129.8365,3.0037 L136.7895,15.6367 C137.6195,17.1637 138.7105,18.2687 140.0025,18.1417 L140.2345,18.1187 L140.2855,18.6257 L132.3125,19.4217 L132.2615,18.9117 L132.4935,18.8897 C133.3015,18.8097 133.9245,18.2577 133.8455,17.4697 C133.8085,17.1017 133.6305,16.7217 133.3775,16.2797 L132.3555,14.4697 L126.8785,15.0137 L126.2855,17.0337 C126.2005,17.3457 126.1445,17.7247 126.1755,18.0257 C126.2605,18.8807 126.8785,19.4477 127.8015,19.3567 L128.0345,19.3347 L128.0825,19.8417 L122.4435,20.4027 L122.3935,19.8957 Z" id="Fill-11"></path>
            <path d="M150.6525,4.2127 L151.2105,15.4867 C151.2785,16.8557 151.7545,17.0877 152.6835,17.0427 L153.2875,17.0107 C156.8605,16.8357 158.2455,13.8347 158.0305,9.4967 C157.8155,5.1597 156.1375,2.3147 152.5425,2.4897 L151.9645,2.5217 C151.0345,2.5667 150.5845,2.8447 150.6525,4.2127 Z M146.3915,17.7027 C147.5725,17.6457 148.1675,16.9407 148.0995,15.5717 L147.5475,4.4367 C147.4795,3.0677 146.8195,2.4277 145.6345,2.4847 L145.4045,2.4957 L145.3795,1.9857 L152.5485,1.6317 C156.9085,1.4137 161.1105,3.6237 161.3935,9.3297 C161.6765,15.0387 157.7135,17.6537 153.3525,17.8697 L146.1845,18.2267 L146.1585,17.7137 L146.3915,17.7027 Z" id="Fill-13"></path>
            <path d="M177.5744,5.8675 L178.1334,5.8625 L178.1804,12.2875 L177.6254,12.2935 C177.6114,10.6445 176.6284,9.5165 175.1434,9.5285 L172.6164,9.5455 L172.6564,14.8125 C172.6674,16.1805 173.1324,16.4325 174.0614,16.4245 L175.5464,16.4125 C177.8634,16.3965 179.3874,15.4095 179.9264,12.8315 L180.4814,12.8255 L180.1894,17.2375 L167.5244,17.3335 L167.5224,16.8245 L167.7514,16.8215 C168.9354,16.8125 169.5564,16.1355 169.5474,14.7665 L169.4624,3.6325 C169.4514,2.2635 168.8194,1.5955 167.6384,1.6035 L167.4064,1.6065 L167.4004,1.0965 L179.8584,0.9995 L179.8884,5.1765 L179.3344,5.1795 C179.1304,3.0715 178.2404,1.8725 175.8294,1.8895 L173.9484,1.9035 C173.0214,1.9125 172.5594,2.1705 172.5714,3.5385 L172.6074,8.6895 L175.1374,8.6695 C176.6224,8.6585 177.5894,7.5135 177.5744,5.8675" id="Fill-15"></path>
            <path d="M198.1271,1.9603 L197.8951,1.9493 L197.9231,1.4393 L210.6101,2.1423 L210.3811,6.3093 L209.8231,6.2783 C209.6821,4.2503 208.8971,2.9063 206.5331,2.7763 L204.4051,2.6573 C203.4801,2.6063 203.0001,2.8353 202.9271,4.2013 L202.6261,9.6193 L205.4031,9.7743 C206.8851,9.8563 207.9221,8.7743 208.0131,7.1313 L208.5671,7.1623 L208.2111,13.5743 L207.6551,13.5453 C207.7461,11.8993 206.8371,10.7123 205.3551,10.6303 L202.5781,10.4743 L202.3071,15.3843 C202.2301,16.7503 202.8191,17.4563 203.9981,17.5213 L204.2311,17.5353 L204.2021,18.0453 L197.0251,17.6463 L197.0541,17.1353 L197.2831,17.1493 C198.4641,17.2153 199.1271,16.5773 199.2041,15.2113 L199.8181,4.0993 C199.8961,2.7333 199.3061,2.0253 198.1271,1.9603" id="Fill-18"></path>
            <path d="M224.9953,4.244 C223.9553,4.14 223.4633,4.417 223.3233,5.78 L222.7683,11.234 L223.5793,11.316 C226.6533,11.628 228.1513,10.191 228.3703,8.044 C228.5683,6.103 227.7243,4.522 225.6213,4.309 L224.9953,4.244 Z M229.5373,18.153 C229.8913,19.031 230.3393,19.473 231.1883,19.839 L231.1353,20.348 L227.3703,19.966 C227.0103,19.836 226.7383,19.504 226.6103,19.164 L223.8853,12.211 L222.6833,12.09 L222.1963,16.872 C222.0573,18.235 222.6153,18.969 223.7943,19.088 L224.0233,19.113 L223.9733,19.62 L216.8073,18.892 L216.8613,18.385 L217.0913,18.408 C218.2693,18.527 218.9603,17.92 219.0993,16.557 L220.2263,5.465 C220.3663,4.102 219.8103,3.369 218.6323,3.25 L218.3993,3.224 L218.4503,2.717 L225.4293,3.425 C229.2203,3.81 231.5713,5.496 231.2763,8.384 C231.0643,10.489 229.4373,11.769 227.1773,12.194 L229.5373,18.153 Z" id="Fill-20"></path>
            <path d="M247.5627,6.7826 C244.7177,6.3496 242.5337,8.6696 241.7857,13.5766 C241.0377,18.4846 242.4317,21.3486 245.2737,21.7826 C248.1187,22.2156 250.3027,19.8956 251.0507,14.9886 C251.7987,10.0806 250.4047,7.2166 247.5627,6.7826 M254.5127,15.5176 C253.6767,20.9976 249.0447,23.2246 245.1457,22.6296 C241.2477,22.0346 237.4877,18.5296 238.3237,13.0476 C239.1597,7.5676 243.7917,5.3406 247.6907,5.9356 C251.5887,6.5306 255.3487,10.0356 254.5127,15.5176" id="Fill-22"></path>
            <path d="M281.0011,13.1634 L280.7721,13.1154 C279.6161,12.8664 278.8591,13.3924 278.5731,14.7334 L276.2351,25.6324 C275.9461,26.9734 276.4201,27.7634 277.5791,28.0124 L277.8061,28.0604 L277.6971,28.5594 L270.6571,27.0524 L270.7651,26.5504 L270.9911,26.5994 C272.1501,26.8484 272.9031,26.3214 273.1921,24.9814 L275.5641,13.9194 L267.2511,26.3214 L266.8891,26.2424 L264.6611,11.3704 L262.2451,22.6354 C261.9591,23.9754 262.4291,24.7634 263.5881,25.0124 L263.8141,25.0604 L263.7101,25.5614 L258.8701,24.5224 L258.9781,24.0234 L259.2051,24.0714 C260.3631,24.3214 261.1171,23.7934 261.4061,22.4544 L263.7431,11.5544 C264.0291,10.2134 263.5601,9.4234 262.4001,9.1744 L262.1741,9.1254 L262.2781,8.6274 L267.7071,9.7884 L269.3821,21.4794 L276.0431,11.5764 L281.1061,12.6624 L281.0011,13.1634 Z" id="Fill-24"></path>
            <path d="M302.4015,19.5863 L301.8485,19.4083 C299.9055,18.7843 298.5565,19.5723 297.6415,21.5923 L297.2215,21.4563 L298.5105,17.4363 L311.3685,21.5583 L310.0795,25.5793 L309.6575,25.4453 C310.0885,23.2703 309.4475,21.8443 307.5045,21.2213 L306.9515,21.0453 C306.4445,20.8813 306.0795,21.0313 305.8885,21.6293 L302.2395,33.0053 C301.8235,34.3083 302.2145,35.1413 303.3385,35.5013 L303.5595,35.5723 L303.4045,36.0593 L296.5555,33.8633 L296.7125,33.3763 L296.9325,33.4473 C298.0605,33.8093 298.8625,33.3593 299.2795,32.0563 L302.9275,20.6803 C303.1185,20.0823 302.9085,19.7483 302.4015,19.5863" id="Fill-26"></path>
            <path d="M326.6632,32.6454 L327.1822,32.8544 L324.7652,38.8134 L324.2492,38.6034 C324.8662,37.0764 324.3912,35.6574 323.0142,35.0994 L320.6682,34.1464 L318.6892,39.0314 C318.1742,40.3004 318.5092,40.7114 319.3702,41.0604 L320.7472,41.6184 C322.8972,42.4914 324.6852,42.1624 326.1702,39.9834 L326.6852,40.1934 L324.7272,44.1594 L312.9802,39.3964 L313.1712,38.9234 L313.3862,39.0114 C314.4822,39.4564 315.3182,39.0684 315.8312,37.7994 L320.0182,27.4714 C320.5312,26.2024 320.2062,25.3404 319.1062,24.8954 L318.8912,24.8114 L319.0842,24.3374 L330.6382,29.0214 L329.0682,32.8914 L328.5532,32.6854 C329.1732,30.6564 328.8102,29.2054 326.5722,28.2984 L324.8302,27.5934 C323.9692,27.2424 323.4412,27.3044 322.9292,28.5734 L320.9902,33.3504 L323.3372,34.3024 C324.7142,34.8604 326.0452,34.1724 326.6632,32.6454" id="Fill-28"></path>
            <path d="M343.5099,46.4403 L344.0389,40.1333 L339.2879,44.2053 L343.5099,46.4403 Z M332.1509,46.3833 L332.3549,46.4943 C333.4009,47.0463 335.0299,46.5963 336.5539,45.3043 L347.2609,36.2263 L347.6719,36.4413 L346.4789,50.7923 C346.3259,52.5213 346.6229,54.0423 347.7709,54.6513 L347.9749,54.7593 L347.7369,55.2103 L340.6649,51.4663 L340.9029,51.0163 L341.1099,51.1243 C341.8259,51.5033 342.6489,51.3873 343.0169,50.6903 C343.1899,50.3643 343.2519,49.9513 343.2829,49.4433 L343.4359,47.3733 L338.5769,44.8003 L336.9699,46.1543 C336.7269,46.3673 336.4719,46.6503 336.3299,46.9163 C335.9279,47.6753 336.1289,48.4893 336.9479,48.9223 L337.1519,49.0333 L336.9129,49.4833 L331.9129,46.8373 L332.1509,46.3833 Z" id="Fill-30"></path>
        </g>
    </g>
</svg>