<?xml version="1.0" encoding="UTF-8"?>
<svg width="228px" height="228px" viewBox="0 0 228 228" version="1.1" xmlns="http://www.w3.org/2000/svg" xmlns:xlink="http://www.w3.org/1999/xlink">
    <!-- Generator: Sketch 50.2 (55047) - http://www.bohemiancoding.com/sketch -->
    <title>Artboard 1</title>
    <desc>Created with Sketch.</desc>
    <defs>
        <polygon id="path-1" points="0 0 228.177 0 228.177 228.179 0 228.179"></polygon>
    </defs>
    <g id="Artboard-1" stroke="none" stroke-width="1" fill="none" fill-rule="evenodd">
        <mask id="mask-2" fill="white">
            <use xlink:href="#path-1"></use>
        </mask>
        <g id="Clip-2"></g>
        <path d="M224.8058,111.9915 C224.7908,111.2165 224.7778,110.4405 224.7468,109.6695 C222.9868,110.3015 220.8038,110.7695 218.6878,110.2905 C218.1788,110.7285 217.8638,110.9745 217.8638,110.9745 C217.8968,110.6455 217.9438,110.3255 217.9978,110.0115 C216.3078,108.5025 211.0148,102.9315 215.4188,95.5875 C215.4188,95.5875 219.9788,99.2465 219.7498,105.3195 C220.9858,103.2665 222.6018,101.7595 224.0198,100.6925 C217.3818,45.9125 170.6308,3.3175 114.0878,3.3175 C53.0098,3.3175 3.3188,53.0115 3.3188,114.0895 C3.3188,167.9575 41.9778,212.9465 93.0038,222.8235 C92.5988,222.6685 92.2108,222.5455 91.7828,222.3505 C87.5968,220.4505 83.8088,218.0565 79.8988,215.3485 C65.3038,203.3855 53.1848,182.9835 46.4908,170.1685 L61.0928,163.0405 C64.2368,167.1645 67.5698,170.9025 70.3118,173.7915 C76.4408,181.2855 83.9308,189.6665 92.2848,197.4165 L93.3048,198.3625 L93.7848,197.0565 C94.2998,195.6505 94.8148,194.2435 95.3298,192.8365 C95.3418,192.8055 95.3528,192.7745 95.3638,192.7435 L123.1988,203.9585 C121.6108,205.8655 119.9438,207.7315 118.2168,209.5265 C114.8088,213.0665 110.8258,216.3455 107.3108,219.2385 C104.1138,221.8685 101.5048,223.4675 98.5748,223.7515 C100.0978,223.9665 101.6248,224.1655 103.1668,224.3175 C104.8808,223.4535 106.6038,222.2195 108.4888,220.6685 C110.8448,218.7295 113.4078,216.6155 115.8838,214.3575 L155.9628,214.7985 C156.0548,215.3755 156.1968,215.9135 156.2988,216.4835 C156.8968,216.2355 157.4908,215.9825 158.0828,215.7255 C157.8048,214.1325 157.4868,212.5705 157.2848,210.9185 C157.8828,211.1505 158.5598,211.2905 159.3568,211.2905 C162.1178,211.2905 163.4858,209.6485 164.8088,208.0605 C166.0668,206.5515 167.2538,205.1265 169.6298,205.1265 C171.5988,205.1265 172.7478,206.1175 173.8018,207.3135 C174.0348,207.1635 174.2688,207.0165 174.5008,206.8645 C173.3308,205.5195 171.9978,204.3035 169.6298,204.3035 C166.8678,204.3035 165.4998,205.9455 164.1768,207.5335 C162.9198,209.0425 161.7318,210.4675 159.3568,210.4675 C158.4918,210.4675 157.7848,210.2765 157.1748,209.9635 C156.9728,208.1575 156.8128,206.3195 156.7028,204.4485 C156.6558,203.6465 156.6198,202.8605 156.5908,202.0835 C157.3438,202.5125 158.2338,202.7865 159.3568,202.7865 C162.1178,202.7865 163.4858,201.1445 164.8088,199.5565 C166.0668,198.0475 167.2538,196.6225 169.6298,196.6225 C172.0048,196.6225 173.1928,198.0475 174.4498,199.5565 C175.7018,201.0595 176.9958,202.6085 179.4708,202.7705 L179.7168,203.2555 C180.1108,202.9655 180.5018,202.6735 180.8908,202.3775 L117.0118,76.3415 C117.0038,76.3365 116.9958,76.3315 116.9888,76.3265 L101.7668,46.2985 C102.7658,45.9975 103.7638,45.7325 104.7608,45.4995 L185.3468,198.8075 C185.5618,198.6255 185.7708,198.4375 185.9858,198.2535 L105.5938,45.3125 C107.0458,44.9995 108.4928,44.7525 109.9258,44.5665 L109.9628,44.5745 L136.2748,90.6655 L136.2508,90.7005 C136.2748,90.7165 136.2988,90.7325 136.3228,90.7495 L193.6058,191.0925 C194.0378,190.6455 194.4678,190.1955 194.8928,189.7425 C194.5628,189.3705 194.2548,188.9795 193.8758,188.6585 L188.8168,179.7965 C189.2248,179.6815 189.6718,179.6145 190.1738,179.6145 C192.5498,179.6145 193.7368,181.0395 194.9938,182.5485 C195.9958,183.7515 197.0308,184.9775 198.6688,185.5055 C198.8768,185.2595 199.0958,185.0235 199.3008,184.7765 C197.6758,184.3895 196.6558,183.2565 195.6268,182.0215 C194.3038,180.4335 192.9348,178.7915 190.1738,178.7915 C189.5048,178.7915 188.9198,178.8885 188.3948,179.0575 L185.4608,173.9175 C186.6798,172.4565 187.8658,171.1105 190.1738,171.1105 C192.5498,171.1105 193.7368,172.5355 194.9938,174.0445 C196.3178,175.6325 197.6858,177.2745 200.4468,177.2745 C203.2078,177.2745 204.5768,175.6325 205.8998,174.0445 C206.7438,173.0315 207.5868,172.0935 208.7498,171.5625 C208.9638,171.2105 209.1588,170.8485 209.3688,170.4945 C207.4988,170.9415 206.3468,172.2225 205.2668,173.5175 C204.0108,175.0255 202.8228,176.4505 200.4468,176.4505 C198.0718,176.4505 196.8848,175.0255 195.6268,173.5175 C194.3038,171.9295 192.9348,170.2875 190.1738,170.2875 C187.6228,170.2875 186.2618,171.6895 185.0258,173.1555 L182.2438,168.2835 C183.5668,167.6795 184.4728,166.5995 185.3548,165.5405 C186.6118,164.0315 187.7988,162.6065 190.1738,162.6065 C192.5498,162.6065 193.7368,164.0315 194.9938,165.5405 C196.3178,167.1285 197.6858,168.7705 200.4468,168.7705 C203.2078,168.7705 204.5768,167.1285 205.8998,165.5405 C207.1578,164.0315 208.3448,162.6065 210.7208,162.6065 C211.7698,162.6065 212.5648,162.9145 213.2598,163.3555 C213.3818,163.1095 213.5148,162.8695 213.6358,162.6225 C212.8468,162.1325 211.9318,161.7835 210.7208,161.7835 C207.9588,161.7835 206.5908,163.4255 205.2668,165.0135 C204.0108,166.5225 202.8228,167.9475 200.4468,167.9475 C198.0718,167.9475 196.8848,166.5225 195.6268,165.0135 C194.3038,163.4255 192.9348,161.7835 190.1738,161.7835 C187.4138,161.7835 186.0448,163.4255 184.7218,165.0135 C183.8608,166.0465 183.0328,167.0395 181.8338,167.5635 L177.3268,159.6695 C178.0388,160.0385 178.8738,160.2665 179.9028,160.2665 C182.6628,160.2665 184.0318,158.6245 185.3548,157.0365 C186.6118,155.5275 187.7988,154.1025 190.1738,154.1025 C192.5498,154.1025 193.7368,155.5275 194.9938,157.0365 C196.3178,158.6245 197.6858,160.2665 200.4468,160.2665 C203.2078,160.2665 204.5768,158.6245 205.8998,157.0365 C207.1578,155.5275 208.3448,154.1025 210.7208,154.1025 C213.0958,154.1025 214.2838,155.5275 215.5408,157.0365 C215.6808,157.2045 215.8308,157.3665 215.9728,157.5335 C216.0938,157.2525 216.2108,156.9705 216.3288,156.6885 C216.2768,156.6265 216.2248,156.5715 216.1738,156.5095 C214.8498,154.9205 213.4818,153.2795 210.7208,153.2795 C207.9588,153.2795 206.5908,154.9205 205.2668,156.5095 C204.0108,158.0185 202.8228,159.4435 200.4468,159.4435 C198.0718,159.4435 196.8848,158.0185 195.6268,156.5095 C194.3038,154.9205 192.9348,153.2795 190.1738,153.2795 C187.4138,153.2795 186.0448,154.9215 184.7218,156.5095 C183.4648,158.0185 182.2778,159.4435 179.9028,159.4435 C178.2868,159.4435 177.2218,158.7835 176.3088,157.8875 L169.3008,145.6105 C169.4088,145.6045 169.5168,145.5985 169.6298,145.5985 C172.0048,145.5985 173.1928,147.0235 174.4498,148.5325 C175.7728,150.1205 177.1408,151.7625 179.9028,151.7625 C182.6628,151.7625 184.0318,150.1205 185.3548,148.5325 C186.6118,147.0235 187.7988,145.5985 190.1738,145.5985 C192.5498,145.5985 193.7368,147.0235 194.9938,148.5325 C196.3178,150.1205 197.6858,151.7625 200.4468,151.7625 C203.2078,151.7625 204.5768,150.1205 205.8998,148.5325 C207.1578,147.0235 208.3448,145.5985 210.7208,145.5985 C213.0958,145.5985 214.2838,147.0235 215.5408,148.5325 C216.3728,149.5315 217.2658,150.5045 218.4698,151.1245 C218.5618,150.8635 218.6448,150.5985 218.7368,150.3375 C217.7248,149.7845 216.9458,148.9315 216.1738,148.0045 C214.8498,146.4175 213.4818,144.7745 210.7208,144.7745 C207.9588,144.7745 206.5908,146.4175 205.2668,148.0055 C204.0108,149.5135 202.8228,150.9385 200.4468,150.9385 C198.0718,150.9385 196.8848,149.5135 195.6268,148.0055 C194.3038,146.4175 192.9348,144.7745 190.1738,144.7745 C187.4138,144.7745 186.0448,146.4175 184.7218,148.0055 C183.4648,149.5135 182.2778,150.9385 179.9028,150.9385 C177.5268,150.9385 176.3398,149.5135 175.0818,148.0055 C173.7588,146.4175 172.3908,144.7745 169.6298,144.7745 C169.3558,144.7745 169.0998,144.7955 168.8528,144.8255 L165.5938,139.1165 C166.6098,137.9935 167.7458,137.0965 169.6298,137.0965 C172.0048,137.0965 173.1928,138.5215 174.4498,140.0305 C175.7728,141.6185 177.1408,143.2605 179.9028,143.2605 C182.6628,143.2605 184.0318,141.6185 185.3548,140.0305 C186.6118,138.5215 187.7988,137.0965 190.1738,137.0965 C192.5498,137.0965 193.7368,138.5215 194.9938,140.0305 C196.3178,141.6185 197.6858,143.2605 200.4468,143.2605 C203.2078,143.2605 204.5768,141.6185 205.8998,140.0305 C207.1578,138.5215 208.3448,137.0965 210.7208,137.0965 C213.0958,137.0965 214.2838,138.5215 215.5408,140.0305 C216.8538,141.6065 218.2178,143.2255 220.9348,143.2515 C221.0118,142.9705 221.0998,142.6925 221.1748,142.4095 C221.1088,142.4115 221.0618,142.4375 220.9938,142.4375 C218.6188,142.4375 217.4308,141.0125 216.1738,139.5035 C214.8498,137.9155 213.4818,136.2735 210.7208,136.2735 C207.9588,136.2735 206.5908,137.9155 205.2668,139.5035 C204.0108,141.0125 202.8228,142.4375 200.4468,142.4375 C198.0718,142.4375 196.8848,141.0125 195.6268,139.5035 C194.3038,137.9155 192.9348,136.2735 190.1738,136.2735 C187.4138,136.2735 186.0448,137.9155 184.7218,139.5035 C183.4648,141.0125 182.2778,142.4375 179.9028,142.4375 C177.5268,142.4375 176.3398,141.0125 175.0818,139.5035 C173.7588,137.9155 172.3908,136.2735 169.6298,136.2735 C167.5368,136.2735 166.2438,137.2175 165.1648,138.3655 L162.5608,133.8035 C163.4598,133.1875 164.1598,132.3505 164.8478,131.5275 C166.1038,130.0185 167.2918,128.5935 169.6678,128.5935 C172.0428,128.5935 173.2298,130.0185 174.4878,131.5275 C175.8108,133.1155 177.1798,134.7575 179.9398,134.7575 C182.7018,134.7575 184.0688,133.1155 185.3918,131.5275 C186.6498,130.0185 187.8368,128.5935 190.2118,128.5935 C192.5878,128.5935 193.7748,130.0185 195.0328,131.5275 C196.3558,133.1155 197.7238,134.7575 200.4848,134.7575 C203.2458,134.7575 204.6148,133.1155 205.9378,131.5275 C207.1958,130.0185 208.3828,128.5935 210.7588,128.5935 C213.1338,128.5935 214.3218,130.0185 215.5788,131.5275 C216.9018,133.1155 218.2708,134.7575 221.0318,134.7575 C221.7658,134.7575 222.3918,134.6285 222.9548,134.4285 C223.0178,134.0905 223.0768,133.7505 223.1368,133.4115 C222.5358,133.7115 221.8758,133.9335 221.0318,133.9335 C218.6558,133.9335 217.4688,132.5085 216.2118,130.9995 C214.8878,129.4115 213.5198,127.7695 210.7588,127.7695 C207.9968,127.7695 206.6288,129.4115 205.3058,130.9995 C204.0478,132.5085 202.8608,133.9335 200.4848,133.9335 C198.1098,133.9335 196.9218,132.5085 195.6648,130.9995 C194.3418,129.4115 192.9728,127.7695 190.2118,127.7695 C187.4518,127.7695 186.0828,129.4115 184.7598,131.0005 C183.5028,132.5085 182.3148,133.9335 179.9398,133.9335 C177.5648,133.9335 176.3778,132.5085 175.1198,131.0005 C173.7968,129.4115 172.4288,127.7695 169.6678,127.7695 C166.9068,127.7695 165.5378,129.4115 164.2148,130.9995 C163.5658,131.7785 162.9338,132.5335 162.1488,133.0825 L158.4608,126.6215 C158.7538,126.6655 159.0628,126.6905 159.3938,126.6905 C162.1558,126.6905 163.5238,125.0485 164.8478,123.4605 C166.1038,121.9515 167.2918,120.5265 169.6678,120.5265 C172.0428,120.5265 173.2298,121.9515 174.4878,123.4605 C175.8108,125.0485 177.1798,126.6905 179.9398,126.6905 C182.7018,126.6905 184.0688,125.0485 185.3918,123.4605 C186.6498,121.9515 187.8368,120.5265 190.2118,120.5265 C192.5878,120.5265 193.7748,121.9515 195.0328,123.4605 C196.3558,125.0485 197.7238,126.6905 200.4848,126.6905 C203.2458,126.6905 204.6148,125.0485 205.9378,123.4605 C207.1958,121.9515 208.3828,120.5265 210.7588,120.5265 C213.1338,120.5265 214.3218,121.9515 215.5788,123.4605 C216.9018,125.0485 218.2708,126.6905 221.0318,126.6905 C222.3888,126.6905 223.4038,126.2885 224.2478,125.6975 C224.2878,125.3075 224.3158,124.9145 224.3528,124.5245 C223.4948,125.2955 222.4998,125.8675 221.0318,125.8675 C218.6558,125.8675 217.4688,124.4425 216.2118,122.9335 C215.1558,121.6675 214.0698,120.3685 212.2728,119.8935 L224.7038,119.9125 C224.7258,119.5025 224.7248,119.0885 224.7428,118.6775 L153.8648,118.5705 L151.1768,113.8615 C151.1078,113.2375 151.0768,112.6115 151.0788,111.9915 L164.2068,111.9915 C162.7788,109.0375 162.0058,104.9245 164.6438,100.0985 C164.6438,100.0985 169.3388,104.2305 169.0888,111.0885 C171.9248,106.0165 176.6718,103.8005 176.6718,103.8005 C175.9818,106.7305 174.1718,109.6135 172.3118,111.9915 L197.9968,111.9915 C195.9388,109.1315 193.6868,104.0415 197.0978,97.8015 C197.0978,97.8015 201.7928,101.9345 201.5418,108.7925 C204.3788,103.7195 209.1258,101.5045 209.1258,101.5045 C208.1918,105.4665 205.2258,109.3565 202.8358,111.9915 L203.1648,111.9915 C204.8678,111.2755 207.2218,110.8535 210.2988,111.7345 C210.2988,111.7345 210.1428,111.8435 209.9198,111.9915 L224.8058,111.9915 Z M224.3948,104.2155 C223.2208,105.8205 221.8908,107.2705 220.7368,108.4055 C221.7338,107.9475 223.0628,107.6095 224.6508,107.5605 C224.5848,106.4395 224.4938,105.3265 224.3948,104.2155 Z M228.1778,114.0895 C228.1778,115.6295 228.1208,117.1565 228.0608,118.6825 C228.0438,119.0925 228.0498,119.5085 228.0288,119.9175 C228.0138,120.2205 227.9798,120.5175 227.9618,120.8195 C227.9398,121.2045 227.9008,121.5855 227.8748,121.9695 C227.6978,124.5485 227.4368,127.1035 227.0908,129.6325 C227.0268,130.0985 226.9818,130.5695 226.9118,131.0335 C226.4418,134.1795 225.8198,137.2735 225.0968,140.3305 C224.9818,140.8195 224.8788,141.3125 224.7578,141.7985 C223.9948,144.8415 223.0958,147.8265 222.0938,150.7675 C221.9948,151.0575 221.8998,151.3495 221.7988,151.6385 C220.9318,154.1175 219.9978,156.5645 218.9678,158.9625 C218.8598,159.2145 218.7398,159.4595 218.6298,159.7105 C217.8478,161.4945 217.0198,163.2525 216.1508,164.9875 C216.0188,165.2515 215.8808,165.5135 215.7458,165.7765 C214.8768,167.4795 213.9678,169.1555 213.0158,170.8075 C212.8808,171.0445 212.7458,171.2825 212.6078,171.5185 C210.8448,174.5315 208.9468,177.4545 206.9238,180.2835 C205.8028,181.8505 204.6448,183.3875 203.4488,184.8955 C201.4568,187.4035 199.3648,189.8255 197.1728,192.1575 C196.9778,192.3645 196.7798,192.5685 196.5838,192.7745 C196.5088,192.8535 196.4348,192.9315 196.3598,193.0095 C196.0128,193.3715 195.6738,193.7405 195.3218,194.0985 C192.8508,196.6065 190.2628,198.9955 187.5708,201.2685 C187.3548,201.4505 187.1478,201.6425 186.9308,201.8225 C185.4568,203.0485 183.9548,204.2425 182.4198,205.3945 C182.0308,205.6875 181.6268,205.9605 181.2338,206.2475 C179.7828,207.3075 178.3078,208.3345 176.8068,209.3265 C176.5698,209.4825 176.3288,209.6305 176.0908,209.7855 C174.3738,210.9015 172.6258,211.9695 170.8478,212.9945 C170.4708,213.2115 170.0968,213.4315 169.7178,213.6445 C168.2688,214.4575 166.7988,215.2355 165.3108,215.9865 C164.6598,216.3145 164.0198,216.6605 163.3628,216.9765 C161.9298,217.6655 160.4768,218.3175 159.0118,218.9465 C158.3328,219.2385 157.6448,219.5105 156.9598,219.7895 C143.7138,225.1815 129.2478,228.1795 114.0878,228.1795 C106.4558,228.1795 99.0028,227.4115 91.7868,225.9755 C39.5198,215.5745 -0.0002,169.3675 -0.0002,114.0895 C-0.0002,51.1795 51.1798,-0.0005 114.0878,-0.0005 C171.8058,-0.0005 219.6168,43.0895 227.1208,98.7845 C227.1408,98.7755 227.1988,98.7495 227.1988,98.7495 C227.1848,98.8025 227.1508,98.8535 227.1368,98.9075 C227.5338,101.8775 227.8418,104.8745 228.0048,107.9115 C228.0078,107.9815 228.0158,108.0515 228.0198,108.1215 C228.0868,109.4035 228.0998,110.6985 228.1238,111.9915 C228.1368,112.6915 228.1778,113.3855 228.1778,114.0895 Z M117.0918,106.0635 C117.0918,108.5105 119.2068,110.5015 121.8068,110.5015 C124.4068,110.5015 126.5228,108.5105 126.5228,106.0635 C126.5228,103.6165 124.4068,101.6255 121.8068,101.6255 C119.2068,101.6255 117.0918,103.6165 117.0918,106.0635 Z M121.8068,100.8475 C118.7778,100.8475 116.3138,103.1875 116.3138,106.0635 C116.3138,108.9395 118.7778,111.2785 121.8068,111.2785 C124.8358,111.2785 127.2998,108.9395 127.2998,106.0635 C127.2998,103.1875 124.8358,100.8475 121.8068,100.8475 Z M122.1008,97.0645 C123.3628,97.0645 124.5888,97.2805 125.7508,97.7075 L131.4248,109.4465 C129.9868,113.0575 126.2868,115.4585 122.1008,115.4585 C116.6188,115.4585 112.1588,111.3325 112.1588,106.2615 C112.1588,101.1895 116.6188,97.0645 122.1008,97.0645 Z M96.2778,82.4155 L96.1278,82.2765 C96.1138,82.2885 94.6648,83.4895 92.0558,84.2325 C89.6468,84.9185 85.7268,85.3435 80.7308,83.4735 L80.6368,83.6545 C80.6988,83.6965 84.5548,86.2905 88.8438,86.2905 C91.4068,86.2905 94.1238,85.3645 96.2778,82.4155 Z M81.1558,78.4445 C81.6088,78.4445 81.9768,77.8845 81.9768,77.1925 C81.9768,76.5025 81.6088,75.9415 81.1558,75.9415 C80.7018,75.9415 80.3338,76.5025 80.3338,77.1925 C80.3338,77.8845 80.7018,78.4445 81.1558,78.4445 Z M117.6528,83.3095 C118.6088,84.1655 119.8698,85.3925 120.7038,86.8415 L121.0908,87.6045 C121.1388,87.7145 121.1848,87.8255 121.2258,87.9375 L125.1988,95.7085 C124.1948,95.4485 123.1588,95.3155 122.1008,95.3155 C115.6548,95.3155 110.4098,100.2255 110.4098,106.2615 C110.4098,112.2965 115.6548,117.2075 122.1008,117.2075 C126.1618,117.2075 129.8378,115.2575 131.9488,112.1595 C132.0138,114.2315 132.2838,117.7085 133.2228,122.0065 C118.5658,131.2625 105.6758,133.7955 100.5808,134.4685 C100.6148,134.4135 100.6328,134.3835 100.6328,134.3835 C103.1938,129.8625 105.9308,123.9215 103.3828,118.9945 C100.3518,113.1355 94.2648,117.2335 88.8428,116.9185 C82.6748,116.5595 85.4498,109.4575 82.2398,106.4165 C81.3418,105.5665 79.4358,105.0945 79.4358,105.0945 C78.4268,104.1495 80.6698,102.4485 80.6698,102.4485 C79.2118,102.1655 78.6508,101.0315 78.6508,101.0315 C79.3238,99.7095 79.0988,97.5365 79.0988,97.5365 C79.3238,96.6855 76.8558,96.5915 76.8558,96.5915 L74.5008,96.4025 C70.2418,95.9095 73.7158,92.5915 73.7158,92.5915 C76.4548,88.0995 78.2018,80.3725 78.2018,80.3725 C78.9578,71.9905 81.8348,66.3795 82.7238,64.8175 C87.0068,70.5585 94.4018,73.0695 101.5618,75.5005 C104.4478,76.4795 107.1728,77.4045 109.7108,78.5295 C113.2738,80.1075 115.7238,81.5825 117.6528,83.3095 Z M95.7058,142.104505 C97.8518,142.1055 101.9818,141.9435 107.2428,140.9565 C114.2698,139.6375 124.7748,136.5355 135.2848,129.2625 C134.6288,127.3965 134.0988,125.6035 133.6718,123.9135 C117.0948,134.2375 103.1268,136.1455 99.3328,136.4845 C98.4688,137.8615 97.2178,139.8245 95.7058,142.104505 Z M81.4438,59.0085 C81.9918,60.2855 82.9478,61.8785 83.7948,63.1305 C87.6448,68.8195 95.0228,71.3245 102.1578,73.7455 C104.9548,74.6955 107.8478,75.6775 110.4608,76.8355 C113.5408,78.1995 115.8438,79.5035 117.7218,80.9585 L115.8708,77.3085 C102.5538,68.2295 89.7298,59.5115 84.5218,55.9725 C83.4748,56.9145 82.4488,57.9265 81.4438,59.0085 Z M159.3568,177.2745 C158.6828,177.2745 158.0948,177.1755 157.5678,177.0055 C157.4838,179.0775 157.3248,181.2795 157.1548,183.6285 C157.1358,183.8875 157.1168,184.1505 157.0978,184.4125 C157.7258,184.7495 158.4548,184.9555 159.3568,184.9555 C161.7318,184.9555 162.9198,183.5305 164.1768,182.0215 C165.1088,180.9025 166.0648,179.7605 167.5128,179.1805 L164.8708,173.9705 C164.8498,173.9945 164.8298,174.0195 164.8088,174.0445 C163.4858,175.6325 162.1178,177.2745 159.3568,177.2745 Z M164.8088,182.5485 C163.4858,184.1365 162.1178,185.7785 159.3568,185.7785 C158.4468,185.7785 157.6898,185.5975 157.0338,185.3015 C156.8698,187.6115 156.7118,190.0415 156.6128,192.6155 C157.3458,193.1265 158.2128,193.4595 159.3568,193.4595 C161.7318,193.4595 162.9198,192.0345 164.1768,190.5255 C165.4998,188.9375 166.8678,187.2955 169.6298,187.2955 C170.4888,187.2955 171.2118,187.4545 171.8418,187.7205 L167.8888,179.9235 C166.5868,180.4215 165.7148,181.4615 164.8088,182.5485 Z M153.9038,157.0365 C153.3128,156.3275 152.7358,155.6385 152.0448,155.1055 C154.3008,159.1305 156.0928,163.1625 156.9768,167.3345 C157.6318,167.7115 158.3958,167.9475 159.3568,167.9475 C160.2308,167.9475 160.9428,167.7525 161.5578,167.4335 L157.8258,160.0715 C156.0388,159.5925 154.9558,158.2995 153.9038,157.0365 Z M157.1768,168.3565 C157.2778,168.9375 157.3618,169.5205 157.4258,170.1065 C157.6308,171.9845 157.6618,173.9895 157.5978,176.1355 C158.1088,176.3335 158.6838,176.4505 159.3568,176.4505 C161.7318,176.4505 162.9198,175.0255 164.1768,173.5175 C164.2728,173.4015 164.3688,173.2865 164.4658,173.1715 L161.9328,168.1735 C161.2208,168.5425 160.3858,168.7705 159.3568,168.7705 C158.5118,168.7705 157.7988,168.6155 157.1768,168.3565 Z M145.4018,144.5245 C147.4478,147.6185 149.4518,150.6515 151.2258,153.6785 C152.6598,154.2615 153.6098,155.3975 154.5358,156.5095 C155.3608,157.4985 156.1578,158.4495 157.2768,158.9885 L133.8448,112.7645 C134.1138,117.8165 135.5978,129.5095 143.2188,141.2065 C143.9408,142.3165 144.6728,143.4225 145.4018,144.5245 Z M85.6458,54.9935 C90.7428,58.4575 102.2538,66.2835 114.5198,74.6435 L100.3758,46.7415 C95.3238,48.4335 90.3088,51.0655 85.6458,54.9935 Z M164.8088,191.0525 C163.4858,192.6405 162.1178,194.2825 159.3568,194.2825 C158.2278,194.2825 157.3338,194.0055 156.5778,193.5725 C156.5018,195.9465 156.4818,198.4435 156.5578,201.0825 C157.3028,201.6155 158.1848,201.9635 159.3568,201.9635 C161.7318,201.9635 162.9198,200.5385 164.1768,199.0295 C165.4998,197.4415 166.8678,195.7995 169.6298,195.7995 C172.3908,195.7995 173.7588,197.4415 175.0818,199.0295 C176.1738,200.3395 177.2148,201.5855 179.0248,201.8915 L172.5268,189.0725 C171.7618,188.4985 170.8538,188.1185 169.6298,188.1185 C167.2538,188.1185 166.0668,189.5435 164.8088,191.0525 Z M195.6648,122.9335 C196.9218,124.4425 198.1098,125.8675 200.4848,125.8675 C202.8608,125.8675 204.0478,124.4425 205.3058,122.9335 C206.3638,121.6635 207.4528,120.3605 209.2598,119.8895 L191.6148,119.8625 C193.4798,120.3125 194.5868,121.6405 195.6648,122.9335 Z M204.9498,97.0035 C207.4098,94.3855 210.7768,90.1825 211.7828,85.9165 C211.7828,85.9165 206.6308,88.3205 203.8538,93.8555 C204.3728,86.6845 199.4388,82.3395 199.4388,82.3395 C194.7078,90.9965 200.8798,97.4655 202.3048,98.7915 C202.2618,99.0845 202.2268,99.3815 202.1998,99.6855 C202.1998,99.6855 202.4528,99.4675 202.8728,99.0765 C207.5978,100.2835 212.7668,96.4615 212.7668,96.4615 C209.2768,95.4625 206.6718,96.1165 204.9498,97.0035 Z M175.1198,122.9335 C176.3778,124.4425 177.5648,125.8675 179.9398,125.8675 C182.3148,125.8675 183.5028,124.4425 184.7598,122.9335 C185.8408,121.6355 186.9538,120.3025 188.8308,119.8585 L170.9138,119.8315 C172.8718,120.2435 174.0138,121.6055 175.1198,122.9335 Z M159.3938,125.8675 C161.7698,125.8675 162.9578,124.4425 164.2148,122.9335 C165.3248,121.6015 166.4708,120.2345 168.4398,119.8285 L154.5708,119.8065 L157.9038,125.6475 C158.3468,125.7865 158.8368,125.8675 159.3938,125.8675 Z M185.2968,105.3475 C187.7648,102.7385 191.2188,98.4715 192.2398,94.1425 C192.2398,94.1425 187.1148,96.5345 184.3328,102.0385 C184.6658,95.0815 179.8958,90.8805 179.8958,90.8805 C175.2008,99.4715 181.2438,105.9085 182.7278,107.3015 C182.7018,107.5035 182.6748,107.7045 182.6568,107.9115 C182.6568,107.9115 182.7938,107.7925 183.0338,107.5755 L183.0428,107.5835 C183.0468,107.5745 183.0498,107.5665 183.0538,107.5575 C183.0988,107.5165 183.1448,107.4735 183.1968,107.4255 C187.9238,108.6395 193.0978,104.8145 193.0978,104.8145 C189.6188,103.8175 187.0188,104.4645 185.2968,105.3475 Z M149.3618,52.8935 L111.8488,44.9725 L137.4098,89.7465 C144.5498,94.6215 150.0108,98.5775 152.9168,100.7195 C153.5508,99.4835 154.3488,98.2295 155.3648,97.0005 C155.3648,97.0005 173.5228,70.8535 149.3618,52.8935 Z M146.6978,50.7585 L148.7758,51.1975 L151.6908,41.4725 C153.3198,36.0365 150.7688,30.8065 145.9938,29.7905 L126.6858,25.6835 C121.9108,24.6675 116.7188,28.2515 115.0898,33.6875 L112.1588,43.4665 L115.3798,44.1465 L146.6978,50.7585 Z M150.2548,112.2475 C150.2308,110.2995 150.5138,108.4045 150.9318,106.6935 C151.1728,105.2925 151.5918,103.7055 152.2948,102.0505 C149.7898,100.2025 145.1568,96.8345 139.0498,92.6205 L150.2548,112.2475 Z M146.8238,150.0755 C148.0628,154.6965 147.1978,159.3575 146.4348,162.0665 C143.1108,173.8685 138.2628,185.0605 132.4118,194.4325 C131.2028,196.3685 129.8798,198.3105 128.4658,200.2345 C136.0648,202.7495 146.2858,204.1125 154.8108,203.7455 C154.4078,195.9215 154.8828,189.3295 155.3058,183.4945 C155.6748,178.4265 155.9928,174.0505 155.5838,170.3075 C154.8328,163.4175 151.1758,156.8455 146.8238,150.0755 Z M41.1338,159.2005 C41.7738,160.6305 43.4968,164.3925 46.1108,169.4385 L60.5868,162.3715 C58.3668,159.4105 56.2648,156.2685 54.5608,153.1095 L41.1338,159.2005 Z M97.5548,143.5525 C97.6468,143.2845 97.7348,143.0285 97.7788,142.8835 C96.9648,142.9165 96.2658,142.9285 95.7018,142.9285 C95.5028,142.9285 95.3258,142.9265 95.1608,142.9245 C92.8238,146.4225 89.9458,150.5485 86.9498,154.4125 C86.9498,154.4125 74.6038,168.4855 75.4788,177.0875 C80.5058,182.9775 86.2618,189.2065 92.5258,195.1065 C92.8808,194.1375 93.2358,193.1685 93.5898,192.1995 C95.1988,187.8045 96.8488,183.2965 98.5358,178.8145 C94.6438,172.2495 91.5818,160.9805 97.5548,143.5525 Z M128.8708,196.4635 L98.2518,184.8825 C97.4938,186.9335 96.7438,188.9775 96.0018,191.0025 L124.4268,202.4555 C126.0048,200.4845 127.4948,198.4785 128.8708,196.4635 Z M113.7508,148.0905 C109.0488,154.1645 106.2268,162.5635 103.9598,169.3115 C103.2608,171.3945 102.5988,173.3605 101.9578,175.0285 C100.8018,178.0355 99.6608,181.0775 98.5368,184.1105 L129.3438,195.7625 C129.8598,194.9915 130.3598,194.2215 130.8408,193.4515 C136.5988,184.2255 141.3748,173.1995 144.6518,161.5645 C146.1778,156.1445 145.8088,150.9015 143.6388,147.1795 C141.7848,144.0005 138.6658,141.8545 134.3698,140.8015 C125.9008,138.7245 119.1558,141.1095 113.7508,148.0905 Z M107.3648,141.7715 C103.8848,142.4225 100.8938,142.7165 98.6268,142.8425 C98.6218,142.9725 98.5648,143.1445 98.3338,143.8195 C92.6338,160.4515 95.2778,171.3305 98.9128,177.8185 C99.3488,176.6635 99.7868,175.5105 100.2288,174.3635 C100.8558,172.7325 101.5108,170.7845 102.2028,168.7215 C104.5148,161.8405 107.3918,153.2765 112.2858,146.9555 C118.1048,139.4395 125.6838,136.7635 134.8118,139.0015 C137.4838,139.6565 139.7528,140.7035 141.6068,142.1265 C138.9218,137.9885 136.9808,133.8855 135.5758,130.0635 C124.9948,137.3385 114.4388,140.4465 107.3648,141.7715 Z M46.5138,127.4585 C46.5138,127.4585 46.1708,125.9605 46.2358,123.8765 C45.6368,126.2345 44.6678,128.0525 44.6678,128.0525 C43.5458,134.4775 46.9108,134.7615 46.9108,134.7615 C48.9298,134.7615 48.9298,130.4155 48.9298,130.4155 C48.5698,129.1205 48.4238,127.8725 48.3788,126.7335 L46.5138,127.4585 Z M60.9188,113.8815 C60.9188,113.8815 55.3618,118.0045 50.2318,116.7805 C50.0908,116.9135 49.9658,117.0315 49.8488,117.1395 C48.4578,119.6225 47.4248,122.8265 48.3538,125.8545 C48.3728,123.5385 48.8178,121.9115 48.8178,121.9115 C50.2758,118.5105 52.4068,119.7385 52.4068,119.7385 L52.1818,120.9675 C51.5098,122.4785 53.4158,127.9585 53.4158,127.9585 C54.3128,129.8485 55.8838,135.7055 55.8838,135.7055 C56.4438,142.5085 52.2948,148.2715 52.2948,148.2715 C52.6088,149.0765 52.9618,149.8865 53.3428,150.6985 L53.3088,150.7195 C53.3178,150.7335 53.3728,150.8205 53.4738,150.9755 C53.6978,151.4435 53.9318,151.9125 54.1748,152.3805 L40.8128,158.4415 C39.6558,154.8445 36.4808,153.0905 36.4808,153.0905 C31.6578,150.1615 29.0778,139.2955 29.0778,139.2955 C28.7418,134.7615 26.2748,130.2255 26.2748,130.2255 C30.4178,129.6575 32.4918,137.1775 32.9938,139.3085 C33.0848,138.0375 35.4718,136.7455 35.4718,136.7455 C33.5648,133.8165 37.0418,132.7775 37.0418,132.7775 C35.4718,130.7925 38.7238,127.2965 38.7238,127.2965 C41.7518,124.1795 42.0878,121.8175 42.0878,121.8175 C43.6588,119.3605 43.3218,115.4875 43.3218,115.4875 C45.3408,115.5815 45.9018,116.9985 45.9018,116.9985 C46.5108,118.1475 46.7128,119.4395 46.6918,120.7255 C47.0828,119.1575 47.7518,117.5145 48.9768,116.0055 C46.7778,113.6745 41.8558,107.0935 46.4858,98.5895 C46.4858,98.5895 51.6188,103.1255 51.3458,110.6525 C54.4458,105.0845 59.6368,102.6535 59.6368,102.6535 C58.5928,107.0975 55.2228,111.4795 52.5818,114.3715 C54.4648,113.4525 57.2428,112.8235 60.9188,113.8815 Z M154.8538,204.5655 C155.0228,207.4315 155.3018,210.2255 155.6828,212.9425 L117.8338,212.5265 C118.4158,211.9615 118.9928,211.3915 119.5518,210.8115 C122.5628,207.6805 125.3998,204.3395 127.9518,200.9295 C134.8428,203.2505 143.9298,204.6285 152.0038,204.6285 C152.9708,204.6285 153.9208,204.6055 154.8538,204.5655 Z" id="Fill-1" fill="#FFFFFF" mask="url(#mask-2)"></path>
    </g>
</svg>