<?xml version="1.0" encoding="UTF-8"?>
<svg width="347px" height="54px" viewBox="0 0 347 54" version="1.1" xmlns="http://www.w3.org/2000/svg" xmlns:xlink="http://www.w3.org/1999/xlink">
    <!-- Generator: Sketch 50.2 (55047) - http://www.bohemiancoding.com/sketch -->
    <title>Artboard 1</title>
    <desc>Created with Sketch.</desc>
    <defs>
        <polygon id="path-1" points="0.4004 0.79 13.4814 0.79 13.4814 17.1239 0.4004 17.1239"></polygon>
        <polygon id="path-3" points="0.9129 0.0167 16.9749 0.0167 16.9749 19 0.9129 19"></polygon>
    </defs>
    <g id="Artboard-1" stroke="none" stroke-width="1" fill="none" fill-rule="evenodd">
        <path d="M22.6691,28.721 L22.4621,28.826 C21.4051,29.359 20.8611,30.495 21.0771,32.155 L22.9161,46.427 L22.3971,46.69 L14.1241,39.19 L15.2291,50.32 L14.7731,50.552 L4.3491,41.278 C2.7311,39.83 1.4931,39.442 0.4391,39.978 L0.2301,40.083 L0.0001,39.627 L6.8791,36.144 L7.1081,36.6 L6.9021,36.705 C5.9271,37.199 5.8481,37.915 6.1541,38.516 C6.2591,38.723 6.4261,38.95 6.6241,39.137 L13.9171,45.673 L13.1941,38.335 L11.8061,37.085 C10.4811,35.855 9.6591,35.308 8.8711,35.708 L8.7271,35.782 L8.4941,35.325 L14.5861,32.24 L14.8151,32.696 L14.3191,32.949 C13.5321,33.348 13.4211,33.898 13.6931,34.436 C13.7981,34.643 13.9451,34.83 14.1441,35.017 L21.4171,41.616 L20.2701,32.617 C20.2041,32.18 20.1391,31.9 19.9831,31.591 C19.5841,30.804 18.8561,30.651 18.0281,31.07 L17.8211,31.175 L17.5891,30.719 L22.4371,28.265 L22.6691,28.721 Z" id="Fill-1" fill="#51535C"></path>
        <path d="M40.7062,38.162 L40.9242,38.077 L41.1112,38.553 L34.4132,41.188 L34.2262,40.712 L34.4412,40.627 C35.5432,40.193 35.8812,39.338 35.3792,38.062 L31.2992,27.693 C30.7982,26.418 29.9682,26.021 28.8662,26.454 L28.6502,26.539 L28.4632,26.066 L35.1612,23.432 L35.3482,23.905 L35.1302,23.99 C34.0312,24.423 33.6932,25.279 34.1952,26.554 L38.2752,36.924 C38.7762,38.199 39.6062,38.595 40.7062,38.162" id="Fill-3" fill="#51535C"></path>
        <path d="M49.1891,32.9374 C49.6061,34.2404 50.4041,34.6904 51.5321,34.3314 L51.7531,34.2634 L51.9061,34.7474 L47.2031,36.2464 L47.0471,35.7624 L47.2681,35.6914 C48.3961,35.3314 48.7871,34.5014 48.3731,33.1974 L44.9931,22.5924 C44.5791,21.2894 43.7771,20.8384 42.6491,21.1984 L42.4291,21.2694 L42.2751,20.7824 L45.6561,19.7054 L58.0741,26.9194 L55.6181,19.2074 C55.2041,17.9034 54.4021,17.4534 53.2771,17.8124 L53.0561,17.8834 L52.9001,17.3964 L57.6061,15.8974 L57.7601,16.3854 L57.5391,16.4564 C56.4141,16.8124 56.0201,17.6454 56.4371,18.9494 L60.6101,32.0474 L60.3241,32.1384 L46.3441,24.0124 L49.1891,32.9374 Z" id="Fill-5" fill="#51535C"></path>
        <path d="M75.5417,16.2206 L76.0827,16.0846 L77.6417,22.3266 L77.0997,22.4626 C76.7007,20.8616 75.4797,19.9946 74.0377,20.3546 L71.5807,20.9666 L72.8587,26.0836 C73.1897,27.4116 73.6997,27.5486 74.6037,27.3216 L76.0457,26.9616 C78.2987,26.4006 79.5477,25.0836 79.4657,22.4486 L80.0067,22.3126 L80.7607,26.6726 L68.4557,29.7416 L68.3337,29.2456 L68.5577,29.1886 C69.7077,28.9026 70.1527,28.0976 69.8207,26.7686 L67.1207,15.9516 C66.7897,14.6226 66.0187,14.1206 64.8687,14.4076 L64.6447,14.4646 L64.5207,13.9686 L76.6217,10.9486 L77.6327,15.0056 L77.0917,15.1406 C76.3997,13.1356 75.2527,12.1776 72.9097,12.7616 L71.0817,13.2176 C70.1807,13.4416 69.7927,13.8016 70.1247,15.1326 L71.3737,20.1336 L73.8307,19.5216 C75.2727,19.1616 75.9407,17.8216 75.5417,16.2206" id="Fill-7" fill="#51535C"></path>
        <path d="M113.6154,4.6327 L113.3864,4.6697 C112.2164,4.8567 111.7024,5.6187 111.9214,6.9727 L113.6834,17.9807 C113.9014,19.3317 114.6274,19.8987 115.7974,19.7117 L116.0264,19.6747 L116.1064,20.1787 L108.9974,21.3177 L108.9184,20.8137 L109.1474,20.7767 C110.3144,20.5897 110.8274,19.8247 110.6124,18.4727 L108.8214,7.3037 L105.5574,21.8707 L105.1924,21.9267 L97.7354,8.8677 L99.5594,20.2437 C99.7744,21.5957 100.5004,22.1617 101.6704,21.9747 L101.8994,21.9387 L101.9794,22.4427 L97.0944,23.2247 L97.0154,22.7197 L97.2444,22.6837 C98.4144,22.4967 98.9274,21.7317 98.7094,20.3797 L96.9474,9.3727 C96.7294,8.0187 96.0034,7.4547 94.8334,7.6417 L94.6044,7.6777 L94.5244,7.1737 L100.0044,6.2957 L105.7924,16.5867 L108.4224,4.9467 L113.5334,4.1287 L113.6154,4.6327 Z" id="Fill-9" fill="#51535C"></path>
        <path d="M131.9015,12.6507 L128.8505,7.0977 L127.1415,13.1237 L131.9015,12.6507 Z M122.3935,18.8957 L122.6255,18.8727 C123.8035,18.7567 124.9145,17.4787 125.4695,15.5547 L129.3745,2.0507 L129.8365,2.0037 L136.7895,14.6367 C137.6195,16.1637 138.7105,17.2687 140.0025,17.1417 L140.2345,17.1187 L140.2855,17.6257 L132.3125,18.4217 L132.2615,17.9117 L132.4935,17.8897 C133.3015,17.8097 133.9245,17.2577 133.8455,16.4697 C133.8085,16.1017 133.6305,15.7217 133.3775,15.2797 L132.3555,13.4697 L126.8785,14.0137 L126.2855,16.0337 C126.2005,16.3457 126.1445,16.7247 126.1755,17.0257 C126.2605,17.8807 126.8785,18.4477 127.8015,18.3567 L128.0345,18.3347 L128.0825,18.8417 L122.4435,19.4027 L122.3935,18.8957 Z" id="Fill-11" fill="#51535C"></path>
        <path d="M150.6525,3.2127 L151.2105,14.4867 C151.2785,15.8557 151.7545,16.0877 152.6835,16.0427 L153.2875,16.0107 C156.8605,15.8357 158.2455,12.8347 158.0305,8.4967 C157.8155,4.1597 156.1375,1.3147 152.5425,1.4897 L151.9645,1.5217 C151.0345,1.5667 150.5845,1.8447 150.6525,3.2127 Z M146.3915,16.7027 C147.5725,16.6457 148.1675,15.9407 148.0995,14.5717 L147.5475,3.4367 C147.4795,2.0677 146.8195,1.4277 145.6345,1.4847 L145.4045,1.4957 L145.3795,0.9857 L152.5485,0.6317 C156.9085,0.4137 161.1105,2.6237 161.3935,8.3297 C161.6765,14.0387 157.7135,16.6537 153.3525,16.8697 L146.1845,17.2267 L146.1585,16.7137 L146.3915,16.7027 Z" id="Fill-13" fill="#51535C"></path>
        <g id="Group-17" transform="translate(167.000000, -0.790400)">
            <mask id="mask-2" fill="white">
                <use xlink:href="#path-1"></use>
            </mask>
            <g id="Clip-16"></g>
            <path d="M10.5744,5.6579 L11.1334,5.6529 L11.1804,12.0779 L10.6254,12.0839 C10.6114,10.4349 9.6284,9.3069 8.1434,9.3189 L5.6164,9.3359 L5.6564,14.6029 C5.6674,15.9709 6.1324,16.2229 7.0614,16.2149 L8.5464,16.2029 C10.8634,16.1869 12.3874,15.1999 12.9264,12.6219 L13.4814,12.6159 L13.1894,17.0279 L0.5244,17.1239 L0.5224,16.6149 L0.7514,16.6119 C1.9354,16.6029 2.5564,15.9259 2.5474,14.5569 L2.4624,3.4229 C2.4514,2.0539 1.8194,1.3859 0.6384,1.3939 L0.4064,1.3969 L0.4004,0.8869 L12.8584,0.7899 L12.8884,4.9669 L12.3344,4.9699 C12.1304,2.8619 11.2404,1.6629 8.8294,1.6799 L6.9484,1.6939 C6.0214,1.7029 5.5594,1.9609 5.5714,3.3289 L5.6074,8.4799 L8.1374,8.4599 C9.6224,8.4489 10.5894,7.3039 10.5744,5.6579" id="Fill-15" fill="#51535C" mask="url(#mask-2)"></path>
        </g>
        <path d="M198.1271,0.9603 L197.8951,0.9493 L197.9231,0.4393 L210.6101,1.1423 L210.3811,5.3093 L209.8231,5.2783 C209.6821,3.2503 208.8971,1.9063 206.5331,1.7763 L204.4051,1.6573 C203.4801,1.6063 203.0001,1.8353 202.9271,3.2013 L202.6261,8.6193 L205.4031,8.7743 C206.8851,8.8563 207.9221,7.7743 208.0131,6.1313 L208.5671,6.1623 L208.2111,12.5743 L207.6551,12.5453 C207.7461,10.8993 206.8371,9.7123 205.3551,9.6303 L202.5781,9.4743 L202.3071,14.3843 C202.2301,15.7503 202.8191,16.4563 203.9981,16.5213 L204.2311,16.5353 L204.2021,17.0453 L197.0251,16.6463 L197.0541,16.1353 L197.2831,16.1493 C198.4641,16.2153 199.1271,15.5773 199.2041,14.2113 L199.8181,3.0993 C199.8961,1.7333 199.3061,1.0253 198.1271,0.9603" id="Fill-18" fill="#51535C"></path>
        <path d="M224.9953,3.244 C223.9553,3.14 223.4633,3.417 223.3233,4.78 L222.7683,10.234 L223.5793,10.316 C226.6533,10.628 228.1513,9.191 228.3703,7.044 C228.5683,5.103 227.7243,3.522 225.6213,3.309 L224.9953,3.244 Z M229.5373,17.153 C229.8913,18.031 230.3393,18.473 231.1883,18.839 L231.1353,19.348 L227.3703,18.966 C227.0103,18.836 226.7383,18.504 226.6103,18.164 L223.8853,11.211 L222.6833,11.09 L222.1963,15.872 C222.0573,17.235 222.6153,17.969 223.7943,18.088 L224.0233,18.113 L223.9733,18.62 L216.8073,17.892 L216.8613,17.385 L217.0913,17.408 C218.2693,17.527 218.9603,16.92 219.0993,15.557 L220.2263,4.465 C220.3663,3.102 219.8103,2.369 218.6323,2.25 L218.3993,2.224 L218.4503,1.717 L225.4293,2.425 C229.2203,2.81 231.5713,4.496 231.2763,7.384 C231.0643,9.489 229.4373,10.769 227.1773,11.194 L229.5373,17.153 Z" id="Fill-20" fill="#51535C"></path>
        <path d="M247.5627,5.7826 C244.7177,5.3496 242.5337,7.6696 241.7857,12.5766 C241.0377,17.4846 242.4317,20.3486 245.2737,20.7826 C248.1187,21.2156 250.3027,18.8956 251.0507,13.9886 C251.7987,9.0806 250.4047,6.2166 247.5627,5.7826 M254.5127,14.5176 C253.6767,19.9976 249.0447,22.2246 245.1457,21.6296 C241.2477,21.0346 237.4877,17.5296 238.3237,12.0476 C239.1597,6.5676 243.7917,4.3406 247.6907,4.9356 C251.5887,5.5306 255.3487,9.0356 254.5127,14.5176" id="Fill-22" fill="#51535C"></path>
        <path d="M281.0011,12.1634 L280.7721,12.1154 C279.6161,11.8664 278.8591,12.3924 278.5731,13.7334 L276.2351,24.6324 C275.9461,25.9734 276.4201,26.7634 277.5791,27.0124 L277.8061,27.0604 L277.6971,27.5594 L270.6571,26.0524 L270.7651,25.5504 L270.9911,25.5994 C272.1501,25.8484 272.9031,25.3214 273.1921,23.9814 L275.5641,12.9194 L267.2511,25.3214 L266.8891,25.2424 L264.6611,10.3704 L262.2451,21.6354 C261.9591,22.9754 262.4291,23.7634 263.5881,24.0124 L263.8141,24.0604 L263.7101,24.5614 L258.8701,23.5224 L258.9781,23.0234 L259.2051,23.0714 C260.3631,23.3214 261.1171,22.7934 261.4061,21.4544 L263.7431,10.5544 C264.0291,9.2134 263.5601,8.4234 262.4001,8.1744 L262.1741,8.1254 L262.2781,7.6274 L267.7071,8.7884 L269.3821,20.4794 L276.0431,10.5764 L281.1061,11.6624 L281.0011,12.1634 Z" id="Fill-24" fill="#51535C"></path>
        <path d="M302.4015,18.5863 L301.8485,18.4083 C299.9055,17.7843 298.5565,18.5723 297.6415,20.5923 L297.2215,20.4563 L298.5105,16.4363 L311.3685,20.5583 L310.0795,24.5793 L309.6575,24.4453 C310.0885,22.2703 309.4475,20.8443 307.5045,20.2213 L306.9515,20.0453 C306.4445,19.8813 306.0795,20.0313 305.8885,20.6293 L302.2395,32.0053 C301.8235,33.3083 302.2145,34.1413 303.3385,34.5013 L303.5595,34.5723 L303.4045,35.0593 L296.5555,32.8633 L296.7125,32.3763 L296.9325,32.4473 C298.0605,32.8093 298.8625,32.3593 299.2795,31.0563 L302.9275,19.6803 C303.1185,19.0823 302.9085,18.7483 302.4015,18.5863" id="Fill-26" fill="#51535C"></path>
        <path d="M326.6632,31.6454 L327.1822,31.8544 L324.7652,37.8134 L324.2492,37.6034 C324.8662,36.0764 324.3912,34.6574 323.0142,34.0994 L320.6682,33.1464 L318.6892,38.0314 C318.1742,39.3004 318.5092,39.7114 319.3702,40.0604 L320.7472,40.6184 C322.8972,41.4914 324.6852,41.1624 326.1702,38.9834 L326.6852,39.1934 L324.7272,43.1594 L312.9802,38.3964 L313.1712,37.9234 L313.3862,38.0114 C314.4822,38.4564 315.3182,38.0684 315.8312,36.7994 L320.0182,26.4714 C320.5312,25.2024 320.2062,24.3404 319.1062,23.8954 L318.8912,23.8114 L319.0842,23.3374 L330.6382,28.0214 L329.0682,31.8914 L328.5532,31.6854 C329.1732,29.6564 328.8102,28.2054 326.5722,27.2984 L324.8302,26.5934 C323.9692,26.2424 323.4412,26.3044 322.9292,27.5734 L320.9902,32.3504 L323.3372,33.3024 C324.7142,33.8604 326.0452,33.1724 326.6632,31.6454" id="Fill-28" fill="#51535C"></path>
        <g id="Group-32" transform="translate(330.000000, 35.209600)">
            <mask id="mask-4" fill="white">
                <use xlink:href="#path-3"></use>
            </mask>
            <g id="Clip-31"></g>
            <path d="M12.5099,10.2307 L13.0389,3.9237 L8.2879,7.9957 L12.5099,10.2307 Z M1.1509,10.1737 L1.3549,10.2847 C2.4009,10.8367 4.0299,10.3867 5.5539,9.0947 L16.2609,0.0167 L16.6719,0.2317 L15.4789,14.5827 C15.3259,16.3117 15.6229,17.8327 16.7709,18.4417 L16.9749,18.5497 L16.7369,19.0007 L9.6649,15.2567 L9.9029,14.8067 L10.1099,14.9147 C10.8259,15.2937 11.6489,15.1777 12.0169,14.4807 C12.1899,14.1547 12.2519,13.7417 12.2829,13.2337 L12.4359,11.1637 L7.5769,8.5907 L5.9699,9.9447 C5.7269,10.1577 5.4719,10.4407 5.3299,10.7067 C4.9279,11.4657 5.1289,12.2797 5.9479,12.7127 L6.1519,12.8237 L5.9129,13.2737 L0.9129,10.6277 L1.1509,10.1737 Z" id="Fill-30" fill="#51535C" mask="url(#mask-4)"></path>
        </g>
    </g>
</svg>