<svg version="1" xmlns="http://www.w3.org/2000/svg" width="1026.667" height="1026.667" viewBox="0 0 770.000000 770.000000"><path d="M633.7.6c-.1.1-2 .4-4.2.7-13.6 1.5-21.7 9.7-37 37.2-9.7 17.5-27.4 47.1-37.8 63.5-13.2 20.6-14.8 23.1-37.2 57.5-12 18.5-13.7 24-9.2 30.5 4 6.1 11.9 8.9 19.3 6.8 5.7-1.5 12.7-7.9 54.9-50.2 36.5-36.5 51.6-52.2 66.6-69.1 2.4-2.7 5.2-5.9 6.2-7 3.4-3.7 12.6-18 14.6-22.7 9.2-21.6.3-40.6-21.4-45.7C643.9 1 634.3 0 633.7.6zM137.6 153.5c-7.4 2.6-9.2 5.8-13.5 25-9.6 42.3-19.6 64.8-36.2 81.4-13.6 13.5-34.7 23.1-61 27.6-15.3 2.7-18.3 6.3-18.1 21.9.1 8.1 2.1 12.9 6.5 15.7 3 1.9 4.2 2 22.2 1.3 10.5-.4 25.5-.8 33.5-.8 12.8-.1 14.9.1 17.9 1.9 5.7 3.4 6.1 5.9 5.6 37.8-.6 40.3-2.3 125-3 153.7-2.5 101.1-2.2 141.3 1.1 158.3.2 1.2.6 3.9.9 6.2 1.8 12.3 7.9 29.3 14.9 41.4 2.8 4.7 12 14.4 18 18.9 9.7 7.2 20 11.3 37 14.8 4.6.9 16.9 1.8 25.6 1.8 34.3-.1 62.5-8.2 90.5-26.2 3.9-2.4 7.2-4.7 7.5-5.1.3-.3 2.3-2 4.5-3.6 7.6-5.7 18.4-16.7 20.5-20.9 1.1-2.3 2-5.6 2-7.3 0-13.2-13.7-22.6-24.7-16.9-1.6.8-5.8 4.5-9.4 8.1-12.1 12.6-23 19.3-37.4 23.1-9.8 2.6-34.4 2.6-43 0-13-3.9-23.9-11.4-30.4-20.9-5.7-8.5-9.4-23.4-11.8-47.7-1.5-15.9-.4-297.6 1.3-306.4.8-4.6 3.5-8.4 6.8-9.8 3.2-1.4 11.5-1.4 82.7-.7l32.5.4 3.6-2.7c3.1-2.4 6.5-7.6 7.6-11.8 1.2-4.6 1.3-15 .2-19.8-1.6-7.4-6.6-12.9-12.3-13.7-6.3-.9-8.2-.9-49.2 1-2.7.2-16.9.6-31.5 1-30.1.8-33.5.4-37.2-4.8-2.3-3.1-2.3-3.7-2.1-26.7 0-12.9.4-37 .8-53.5.6-31.1.5-32.6-3.5-38.1-3.3-4.6-12.2-6.4-19.4-3.9zM540 262.6c-43.9 5.8-81.2 21.9-113 48.8-6.7 5.7-22.7 22.4-27.6 28.7-2.6 3.5-5.1 6.6-5.4 6.9-2.3 2-22 34.7-22 36.6 0 .1-1.7 4-3.9 8.6-10.9 23.5-20.5 58.8-23.6 86.8-.4 3-.8 6.8-1 8.5-2.3 17.4-2.3 56.4 0 75 2.9 22.5 10.3 53.2 16 66 .8 1.6 2.6 5.9 4.1 9.5 14.3 34.9 39.8 67.1 69.8 88.2 4.4 3.2 8.6 6.2 9.3 6.8.7.5 1.4 1 1.6 1 .2 0 3.9 2 8.3 4.5 18.3 10.4 46.6 20 68.1 23 2.1.3 4.7.7 5.8 1 13.5 2.8 56.5 2.5 74.5-.5 3-.5 7.3-1.2 9.5-1.5 6.5-.9 23.3-5.2 33-8.3 39.8-13.1 73.9-38.1 95.4-70 13.4-19.9 23.2-46.7 22.8-62-.4-14.4-6.6-20.7-20.3-20.6-12.5 0-16.9 4.8-20.4 22.1-4.7 23.4-12.1 37.6-27.5 52.9-17.3 17.1-39.6 28.7-66.7 34.8-14.9 3.4-22.6 4.1-42.3 4.1-26.2 0-40.5-2.4-61.5-10.2-13-4.8-21.1-9.1-33.4-17.3-28.6-19.2-51.6-49.4-65-85.1-3.5-9.7-8.9-28.3-10-34.9-.3-1.9-.8-4.6-1-6-3-15.8-4.1-28.5-4.1-48 0-20 .6-24.7 3.8-31 4.4-8.6-3.6-7.9 101.8-8.5 51.4-.3 101.7-.7 111.9-1 43.8-1.1 64.8-1.8 80.5-3 21.2-1.6 26.8-2.7 33.8-6.8 5.3-3.2 6.9-4.9 10.3-11.7 2.7-5.3 2.8-6.1 2.8-20 0-28.6-6.6-57.3-18.6-80.8-5-9.9-13.8-23.4-18.9-29.2-1.7-1.9-4.1-4.6-5.3-6-2.2-2.5-10.8-10.5-16.1-15-18.4-15.4-55.7-31.2-82-34.6-1.6-.2-4.8-.6-7-1s-5.3-.9-7-1.1c-8.4-1.2-49.7-1-59.5.3zm41 36.4c12.6 1.8 14.8 2.2 20.5 3.6 21.6 5.4 38 14.6 50.8 28.4 15.2 16.4 22.7 36.7 24.2 65 1 17.7-4.8 27.6-19.2 33-6.1 2.3-8.5 2.8-17.3 3.5-16.6 1.4-28.3 2-58.5 3-6.6.3-43.3.7-81.5 1-74.9.7-74 .7-77.7-4.4-4-5.8.3-26.5 10.1-48.6 4.4-9.7 4.8-10.6 9.5-18.5 20.5-34.8 56-59.2 95.1-65.5 9.2-1.5 35.1-1.8 44-.5z"/></svg>