<?xml version="1.0" encoding="UTF-8"?>
<svg width="1789px" height="508px" viewBox="0 0 1789 508" version="1.1" xmlns="http://www.w3.org/2000/svg" xmlns:xlink="http://www.w3.org/1999/xlink">
    <!-- Generator: Sketch 46.2 (44496) - http://www.bohemiancoding.com/sketch -->
    <title>Group</title>
    <desc>Created with Sketch.</desc>
    <defs></defs>
    <g id="Page-1" stroke="none" stroke-width="1" fill="none" fill-rule="evenodd">
        <g id="Group" fill-rule="nonzero">
            <path d="M96,4 C96.751,40.358 104.249,76.628 105,113 L286,113 C290.661,88.967 295.537,64.987 300.45,41 C303.166,27.736 307.888,13.59 308,0 C282.644,0 257.293,0.6954 232,0.9962 C215.031,1.1979 197.953,0.297 181,1.0394 C152.775,2.275 124.257,3.997 96,4 Z" id="Shape" fill="#FFFFFF"></path>
            <path d="M606,9.628 C600.155,10.854 594.538,13.937 589,16.089 C577.456,20.575 565.83,25.442 554,29.116 C549.364,30.555 538.818,31.926 536.984,37.133 C535.216,42.151 539.319,45.918 543.005,48.421 C548.729,52.307 554.112,56.012 556.073,63 C558.881,73.01 558,83.728 558,94 L558,143 L558,162 C557.995,164.732 558.424,168.284 556.821,170.682 C553.94,174.99 546.041,171.712 542,171.131 C527.581,169.058 513.356,170.067 499,172.131 C465.144,176.999 433.476,197.99 415.612,227 C383.209,279.618 398.424,356.304 457,382.688 C465.982,386.734 476.225,388.896 486,389.83 C502.264,391.384 518.425,387.992 533,380.752 C538.606,377.968 543.78,374.778 549,371.334 C551.076,369.965 554.063,367.329 556.772,367.881 C559.821,368.503 559.92,372.587 559.984,375 C560.126,380.353 555.43,393.526 564.015,394.472 C567.021,394.803 570.282,392.842 573,391.814 C578.518,389.726 584.335,388.081 590,386.424 C599.678,383.594 610.027,380.837 620,379.296 C628.076,378.049 637.147,377.707 644.956,375.277 C650.187,373.649 652.951,362.232 647.566,359.121 C645.344,357.837 642.257,359.249 640,359.765 C633.907,361.158 625.335,363.985 620.394,358.772 C615.53,353.641 614.798,344.666 613.87,338 C611.514,321.096 612,304.042 612,287 L612,97 C612,74.305 613,51.63 613,29 C613,22.82 616.857,7.35 606,9.628 Z" id="Shape" fill="#FFFFFF"></path>
            <path d="M885,9.628 C879.14,10.858 873.55,14.032 868,16.189 C856.39,20.7 844.77,25.005 833,29.078 C828.82,30.523 817.63,32.399 816.32,37.144 C814.62,43.306 819.67,46.558 824,49.519 C829.05,52.973 833.83,57.004 835.78,63 C837.88,69.475 836.54,76.347 837.17,83 C839.06,102.817 838,123.081 838,143 C838,150.338 840.61,164.443 836.01,170.678 C833.17,174.532 825.89,171.627 822,171.155 C808.94,169.571 796.01,169.5 783,171.59 C747.009,177.37 714.423,195.265 695.062,227 C663.112,279.369 676.932,355.066 735,382.218 C744.134,386.489 754.991,388.874 765,389.83 C780.849,391.345 796.67,388.608 811,381.64 C816.87,378.786 822.65,375.468 828,371.726 C830.1,370.257 832.95,367.517 835.77,367.998 C838.83,368.519 838.93,372.617 838.98,375 C839.09,380.455 834.35,393.367 843.02,394.497 C846.65,394.971 850.71,392.446 854,391.228 C860.19,388.937 866.69,387.295 873,385.348 C881.54,382.714 891.16,380.469 900,379.134 C907.77,377.962 916.48,377.763 923.98,375.431 C929.62,373.68 932.85,362.929 927.27,359.071 C925.2,357.637 922.15,359.173 920,359.664 C913.87,361.067 904.49,364.317 899.64,358.772 C893.39,351.63 893.22,339.938 892.99,331 C892.6,316.343 892,301.72 892,287 L892,98 C892,74.961 891.95,51.97 892.96,29 C893.24,22.725 895.41,7.444 885,9.628 Z" id="Shape" fill="#FFFFFF"></path>
            <path d="M1021,367 C1034.93,331.808 1048.14,296.307 1061.81,261 C1073.96,229.645 1085.9,198.227 1098.4,167 C1101.87,158.32 1105.66,149.753 1108.95,141 C1110.14,137.829 1112.82,133.528 1112.35,130.059 C1111.4,122.952 1097.49,126.813 1093,127.424 C1076.62,129.653 1059.99,131.352 1044,135.86 C1039.48,137.134 1030.65,137.86 1028.03,142.228 C1025.8,145.941 1028.11,149.392 1031.06,151.655 C1036.41,155.758 1043.98,158.77 1045.6,166 C1046.81,171.335 1044.52,177.034 1042.79,182 C1039.86,190.376 1036.88,198.682 1033.77,207 C1017.59,250.364 1001.36,293.726 984.94,337 C974.55,364.361 963.45,391.539 956.37,420 C949.59,447.258 944.19,486.364 975,501.214 C984.29,505.694 992.91,506 1003,506 C1020.34,506 1035.86,502.677 1052,496.2 C1094.46,479.163 1129.92,444.883 1153.2,406 C1163.77,388.338 1172.83,367.716 1174.83,347 C1175.58,339.205 1175.95,329.629 1174.1,322 C1172.77,316.511 1170.5,310.809 1167.53,306 C1148.45,275.095 1105.1,286.799 1081,303.347 C1065.87,313.737 1052.87,327.727 1041.45,342 C1034.97,350.095 1029.24,360.68 1021,367 Z" id="Shape" fill="#FFFFFF"></path>
            <path d="M199,146.424 C176.475,149.383 155.08,152.82 134,161.873 C78.458,185.726 32.752,237.911 13.516,295 C-5.997,352.915 -9.77,431.865 42,475.246 C48.268,480.498 54.813,485.738 62,489.688 C74.823,496.736 88.664,501.667 103,504.551 C124.764,508.93 148.082,508.559 170,505.711 C263.94,493.503 338.036,404.038 346.83,312 C349.873,280.161 347.992,246.511 334.688,217 C312.179,167.069 252.451,139.403 199,146.424 Z" id="Shape" fill="#FFFFFF"></path>
            <path d="M202,167.439 C170.137,172.415 143.151,194.525 123.6,219 C86.011,266.058 66.811,323.722 61.17,383 C57.948,416.854 65.216,459.206 97,477.851 C104.597,482.308 113.35,485.008 122,486.536 C130.26,487.996 140.681,487.736 149,486.714 C181.766,482.688 207.135,461.957 227.196,437 C263.835,391.419 285.554,328.425 286.985,270 C287.884,233.316 284.699,187.846 245,171.823 C239.594,169.641 233.826,167.753 228,167.171 C219.829,166.353 210.114,166.172 202,167.439 Z" id="Shape" fill="#000000"></path>
            <path d="M1215,176 C1215.18,197.705 1222.07,219.326 1223,241 C1232.72,238.685 1243.13,238.221 1253,239 L1252,237 L1265,238 L1264,236 C1270.39,236.004 1276.62,236.171 1283,236.015 C1285.45,235.954 1289.19,236.643 1291.26,234.972 C1294.35,232.471 1293.79,221.796 1293.96,218 C1294.22,212.38 1293.76,206.588 1294.17,201.039 C1294.9,191.056 1297,181.231 1297,171 C1269.55,171.018 1242.35,176 1215,176 Z" id="Shape" fill="#FFFFFF"></path>
            <path d="M513,190.44 C506.471,191.169 499.982,192.523 494,195.323 C457.521,212.401 454.336,262.697 460.576,297 C462.068,305.206 464.623,313.472 468.258,321 C478.803,342.834 501.228,362.056 527,358.711 C536.335,357.499 551.04,354.273 555.682,344.985 C557.869,340.61 557,334.737 557,330 L557,301 L557,246 C557,237.499 558.547,227.228 556.211,219 C551.137,201.12 531.44,188.382 513,190.44 Z" id="Shape" fill="#000000"></path>
            <path d="M792,190.429 C785.847,191.193 779.678,192.294 774,194.901 C761.164,200.795 752.152,212.581 746.223,225 C739.298,239.505 738,254.18 738,270 C738,287.18 739.778,303.096 746.861,319 C756.897,341.535 779.543,362.145 806,358.711 C815.72,357.449 829.7,354.348 834.86,344.996 C837.51,340.191 837,334.282 837,329 L837,301 L837,249 C837,238.362 838.11,227.259 834.78,217 C829.32,200.154 809.53,188.251 792,190.429 Z" id="Shape" fill="#000000"></path>
            <path d="M1665,222 C1666.45,231.806 1670.93,241.574 1674,251 C1683.66,248.693 1693.21,249.581 1703,248.91 C1728.74,247.148 1754.28,247.929 1780,248 C1777.19,236.183 1780.06,223.861 1781,212 C1742.3,212.799 1703.72,221.996 1665,222 Z" id="Shape" fill="#FFFFFF"></path>
            <path d="M1199,501 C1209.42,499.066 1220.43,500 1231,500 C1238.72,500 1246.31,499.012 1254,499 C1263.69,498.984 1273.28,500 1283,500 C1289.99,500 1297.01,499.858 1304,500.015 C1306.49,500.07 1310.33,501.146 1312.4,499.307 C1315.14,496.858 1314.71,489.332 1311.68,487.314 C1307.16,484.306 1300.06,484.734 1295,482.532 C1285.96,478.592 1284.34,468.83 1283.29,460 C1281.5,445.038 1283,429.068 1283,414 L1283,324 C1283,313.285 1284,302.672 1284,292 C1284,288.253 1284.97,282.385 1280.85,280.373 C1276.04,278.018 1268.21,284.167 1264,286.244 C1250.99,292.655 1237.54,297.804 1224,302.936 C1219.46,304.658 1210.88,305.123 1208.74,310.109 C1205.08,318.66 1215.02,321.831 1219.98,326.21 C1225.23,330.841 1228.08,337.082 1228.83,344 C1230.86,362.902 1229,382.984 1229,402 C1229,422.74 1230.83,444.452 1227.83,465 C1226.86,471.673 1224.07,478.407 1218,481.911 C1210.13,486.452 1195.34,483.097 1197.2,495.975 C1197.48,497.879 1198.18,499.289 1199,501 Z" id="Shape" fill="#FFFFFF"></path>
            <path d="M1348,501 C1358.42,499.066 1369.43,500 1380,500 C1389.39,500 1398.63,498.985 1408,499 C1416.67,499.014 1425.28,500 1434,500 C1440.99,500 1448.01,499.827 1455,500.036 C1457.53,500.111 1460.96,500.95 1462.68,498.527 C1464.93,495.357 1464.05,489.381 1460.72,487.317 C1457.7,485.445 1453.37,485.634 1450,484.71 C1442.81,482.74 1437.23,477.36 1435.53,470 C1433.1,459.483 1434,447.727 1434,437 L1434,382 C1434,369.555 1431.58,353.732 1436.53,342 C1443.18,326.244 1460.26,316.808 1477,317.019 C1481.58,317.076 1486.6,317.745 1491,319.043 C1521.72,328.114 1519,364.664 1519,390 L1519,407 L1519,430 C1519,443.281 1519.71,458.033 1516.47,471 C1514.5,478.885 1508.59,483.245 1501,485.1 C1497.98,485.839 1493.98,485.582 1491.32,487.318 C1488.39,489.226 1488.04,495.887 1490.03,498.593 C1491.75,500.943 1495.51,500.058 1498,500.014 C1505,499.891 1512,500 1519,500 C1528.72,500 1538.29,498.984 1548,499 C1556.34,499.013 1564.62,500 1573,500 C1583.57,500 1594.58,499.066 1605,501 C1605.82,499.289 1606.52,497.879 1606.8,495.975 C1608.82,481.99 1590.04,487.069 1582.02,481.348 C1574.71,476.141 1574.24,468.126 1573.29,460 C1572.13,450.198 1573,439.865 1573,430 L1573,373 C1573,361.24 1573.43,349.604 1571.2,338 C1566.8,315.221 1554.15,294.361 1530,289.015 C1521.1,287.046 1512.09,286.641 1503,287.039 C1488.44,287.677 1474.71,292.418 1462,299.309 C1456.59,302.244 1451.37,305.55 1446,308.576 C1443.84,309.793 1441.06,311.799 1438.47,311.79 C1434.54,311.777 1434.11,306.899 1434.02,304 C1433.84,298.393 1437.57,283.49 1431.77,280.373 C1427.18,277.905 1419.01,284.035 1415,286.114 C1402.23,292.735 1388.49,297.738 1375,302.681 C1370.54,304.314 1361.84,305.297 1359.74,310.133 C1356.66,317.257 1363.32,320.418 1368,323.789 C1373.05,327.422 1377.81,332.638 1378.79,339 C1380.85,352.428 1380,366.447 1380,380 L1380,443 C1379.98,453.337 1381.02,469.758 1373.78,477.956 C1369.62,482.659 1363.96,484.224 1358,485.246 C1354.93,485.772 1350.16,485.717 1347.74,487.938 C1344.31,491.101 1346.33,497.539 1348,501 Z" id="Shape" fill="#FFFFFF"></path>
            <path d="M1740,287.464 C1727.18,289.709 1715.44,294.837 1705,302.665 C1682.16,319.785 1664.87,346.585 1672.76,376 C1675.72,387.068 1682.09,397.783 1688.75,407 C1697.99,419.802 1709.39,431.141 1715.4,446 C1717.6,451.462 1719.95,458.107 1718.2,464 C1714.77,475.567 1702.14,480.619 1691,478.532 C1679.84,476.441 1670.78,468.771 1663,461 C1656.99,455.003 1651.46,447.52 1642,449.228 C1637.57,450.029 1634.32,453.486 1631.79,457.001 C1624.32,467.377 1625.61,481.071 1633.16,490.961 C1644.39,505.676 1663.91,507.484 1681,505.83 C1718.16,502.234 1754.73,469.368 1755.96,431 C1756.35,418.55 1751.66,405.645 1745.57,395 C1736.83,379.722 1724.45,367.352 1714.44,353 C1710.23,346.96 1704.76,337.704 1706.4,330 C1708.68,319.25 1719.8,313.63 1730,315.465 C1741.27,317.492 1749.3,325.006 1756.96,333 C1761.32,337.55 1765.83,344.198 1773,343.692 C1789.06,342.561 1791.7,320.322 1786.18,309 C1777.9,292.01 1758.06,284.3 1740,287.464 Z" id="Shape" fill="#FFFFFF"></path>
            <path d="M1104,312.529 C1090.35,315.657 1079.13,326.813 1069,335.715 C1040.73,360.553 1018.11,394.71 1005.41,430 C1000.67,443.187 996.39,460.104 1000.16,474 C1002.17,481.44 1007.31,489.07 1016,487.667 C1030.63,485.306 1043.12,471.894 1053,462 C1079.88,435.077 1101.96,399.196 1116.2,364 C1120.89,352.398 1125.32,340.702 1124.99,328 C1124.76,319.52 1120.05,312.256 1111,312.016 C1108.67,311.954 1106.28,312.006 1104,312.529 Z" id="Shape" fill="#000000"></path>
            <path d="M373,453 C372.111,464.165 367.233,474.796 367,486 C388.656,486 410.375,486.092 432,487.039 C439.008,487.346 445.984,488.813 453,488.985 C507.338,490.317 561.677,488.684 616,490.015 C670.345,491.346 724.664,493.654 779,494.985 C817.38,495.926 855.72,495 894,495 L886,449 C714.864,449 544.132,453 373,453 Z" id="Shape" fill="#FFFFFF"></path>
        </g>
    </g>
</svg>